<?xml version="1.0" encoding="utf-8"?>
<!-- Generator: Adobe Illustrator 15.1.0, SVG Export Plug-In . SVG Version: 6.00 Build 0)  -->
<!DOCTYPE svg PUBLIC "-//W3C//DTD SVG 1.1//EN" "http://www.w3.org/Graphics/SVG/1.1/DTD/svg11.dtd">
<svg version="1.1" id="Calque_1" xmlns="http://www.w3.org/2000/svg" xmlns:xlink="http://www.w3.org/1999/xlink" x="0px" y="0px"
	 width="35px" height="35px" viewBox="0 0 35 35" enable-background="new 0 0 35 35" xml:space="preserve">
<g>
	<path fill="none" stroke="#1A171B" stroke-width="1.25" stroke-miterlimit="10" d="M17.335,2.5c5.072,0,9.557,2.518,12.271,6.371
		L29.536,3.3"/>
	<g>
		<g>
			<path fill="none" stroke="#1A171B" stroke-width="0.5" stroke-miterlimit="10" d="M31.031,11.371
				c0.015,0.033,0.029,0.066,0.044,0.1c0.119,0.271,0.23,0.546,0.334,0.826"/>
			<path fill="none" stroke="#1A171B" stroke-width="0.5" stroke-miterlimit="10" stroke-dasharray="2.0264,2.0264" d="M31.98,14.24
				c0.232,1.05,0.355,2.141,0.355,3.26c0,8.285-6.716,15-15,15c-8.285,0-15-6.715-15-15c0-7.604,5.656-13.885,12.991-14.867"/>
			<path fill="none" stroke="#1A171B" stroke-width="0.5" stroke-miterlimit="10" d="M16.336,2.533C16.667,2.511,17,2.5,17.336,2.5"
				/>
		</g>
	</g>
	<g>
		<path fill="none" d="M29.607,8.871"/>
	</g>
	<g>
		<line fill="none" stroke="#1A171B" stroke-width="0.5" stroke-miterlimit="10" x1="29.45" y1="12.154" x2="32.664" y2="10.663"/>
	</g>
</g>
</svg>
