<?xml version="1.0" encoding="utf-8"?>
<!-- Generator: Adobe Illustrator 16.0.0, SVG Export Plug-In . SVG Version: 6.00 Build 0)  -->
<!DOCTYPE svg PUBLIC "-//W3C//DTD SVG 1.1//EN" "http://www.w3.org/Graphics/SVG/1.1/DTD/svg11.dtd">
<svg version="1.1" id="Calque_1" xmlns="http://www.w3.org/2000/svg" xmlns:xlink="http://www.w3.org/1999/xlink" x="0px" y="0px"
	 width="39px" height="46px" viewBox="-3.5 0 39 46" enable-background="new -3.5 0 39 46" xml:space="preserve">
<g>
	<g>
		<g>
			<g>
				<line fill="none" stroke="#1D1D1B" stroke-miterlimit="10" x1="11.827" y1="28.432" x2="11.827" y2="27.682"/>
				<polyline fill="none" stroke="#1D1D1B" stroke-miterlimit="10" stroke-dasharray="1.3618,1.3618" points="11.827,26.32 
					11.827,22.208 11.827,18.173 11.827,13.382 				"/>
				<line fill="none" stroke="#1D1D1B" stroke-miterlimit="10" x1="11.827" y1="12.702" x2="11.827" y2="11.952"/>
			</g>
		</g>
		<g>
			<g>
				
					<line fill="none" stroke="#1D1D1B" stroke-width="1.5" stroke-miterlimit="10" x1="11.827" y1="18.173" x2="12.477" y2="17.798"/>
				
					<line fill="none" stroke="#1D1D1B" stroke-width="1.5" stroke-miterlimit="10" stroke-dasharray="1.6274,1.6274" x1="13.886" y1="16.985" x2="18.818" y2="14.138"/>
				<polyline fill="none" stroke="#1D1D1B" stroke-width="1.5" stroke-miterlimit="10" points="19.523,13.73 20.173,13.355 
					20.173,14.105 				"/>
				
					<line fill="none" stroke="#1D1D1B" stroke-width="1.5" stroke-miterlimit="10" stroke-dasharray="1.3526,1.3526" x1="20.173" y1="15.458" x2="20.173" y2="25.604"/>
				<polyline fill="none" stroke="#1D1D1B" stroke-width="1.5" stroke-miterlimit="10" points="20.173,26.279 20.173,27.029 
					19.523,26.654 				"/>
				
					<line fill="none" stroke="#1D1D1B" stroke-width="1.5" stroke-miterlimit="10" stroke-dasharray="1.6275,1.6275" x1="18.113" y1="25.84" x2="13.181" y2="22.992"/>
				
					<line fill="none" stroke="#1D1D1B" stroke-width="1.5" stroke-miterlimit="10" x1="12.477" y1="22.583" x2="11.827" y2="22.208"/>
			</g>
		</g>
		<path fill="none" stroke="#1D1D1B" stroke-miterlimit="10" d="M11.827,22.208"/>
		<path fill="none" stroke="#1D1D1B" stroke-miterlimit="10" d="M11.827,18.173"/>
	</g>
	<g>
		<g>
			<polyline fill="none" stroke="#1D1D1B" stroke-width="1.5" stroke-miterlimit="10" points="11.5,34.049 16,30.834 20.5,34.049 
							"/>
		</g>
	</g>
</g>
</svg>
