<?xml version="1.0" encoding="utf-8"?>
<!-- Generator: Adobe Illustrator 16.0.0, SVG Export Plug-In . SVG Version: 6.00 Build 0)  -->
<!DOCTYPE svg PUBLIC "-//W3C//DTD SVG 1.1//EN" "http://www.w3.org/Graphics/SVG/1.1/DTD/svg11.dtd">
<svg version="1.1" id="Calque_1" xmlns="http://www.w3.org/2000/svg" xmlns:xlink="http://www.w3.org/1999/xlink" x="0px" y="0px"
	 width="39px" height="46px" viewBox="-3.5 0 39 46" enable-background="new -3.5 0 39 46" xml:space="preserve">
<g>
	<g>
		<polyline fill="none" stroke="#1D1D1B" stroke-width="1.5" stroke-miterlimit="10" points="11.501,40.227 16.001,37.014 
			20.5,40.227 		"/>
	</g>
	<g>
		<g>
			
				<line fill="none" stroke="#1D1D1B" stroke-miterlimit="10" stroke-dasharray="1.5" x1="15.567" y1="5.773" x2="8.445" y2="25.342"/>
			<g>
				<g>
					<g>
						<line fill="none" stroke="#1D1D1B" stroke-miterlimit="10" x1="0.559" y1="23" x2="1.263" y2="23.257"/>
						<polyline fill="none" stroke="#1D1D1B" stroke-miterlimit="10" stroke-dasharray="1.3618,1.3618" points="2.542,23.724 
							6.405,25.129 10.196,26.508 14.699,28.146 						"/>
						<line fill="none" stroke="#1D1D1B" stroke-miterlimit="10" x1="15.339" y1="28.38" x2="16.044" y2="28.637"/>
					</g>
				</g>
				<g>
					<g>
						
							<line fill="none" stroke="#1D1D1B" stroke-width="1.5" stroke-miterlimit="10" x1="10.196" y1="26.508" x2="10.327" y2="27.246"/>
						
							<line fill="none" stroke="#1D1D1B" stroke-width="1.5" stroke-miterlimit="10" stroke-dasharray="1.6273,1.6273" x1="10.609" y1="28.85" x2="11.6" y2="34.458"/>
						<polyline fill="none" stroke="#1D1D1B" stroke-width="1.5" stroke-miterlimit="10" points="11.74,35.26 11.87,35.998 
							11.166,35.741 						"/>
						
							<line fill="none" stroke="#1D1D1B" stroke-width="1.5" stroke-miterlimit="10" stroke-dasharray="1.3526,1.3526" x1="9.896" y1="35.279" x2="0.362" y2="31.811"/>
						<polyline fill="none" stroke="#1D1D1B" stroke-width="1.5" stroke-miterlimit="10" points="-0.273,31.579 -0.979,31.322 
							-0.403,30.84 						"/>
						
							<line fill="none" stroke="#1D1D1B" stroke-width="1.5" stroke-miterlimit="10" stroke-dasharray="1.6275,1.6275" x1="0.843" y1="29.794" x2="5.207" y2="26.134"/>
						
							<line fill="none" stroke="#1D1D1B" stroke-width="1.5" stroke-miterlimit="10" x1="5.831" y1="25.611" x2="6.405" y2="25.129"/>
					</g>
				</g>
				<path fill="none" stroke="#1D1D1B" stroke-miterlimit="10" d="M6.405,25.129"/>
				<path fill="none" stroke="#1D1D1B" stroke-miterlimit="10" d="M10.196,26.508"/>
			</g>
		</g>
		<g>
			<g>
				<line fill="none" stroke="#1D1D1B" stroke-miterlimit="10" x1="25.596" y1="25.131" x2="31.443" y2="23.002"/>
				<line fill="none" stroke="#1D1D1B" stroke-miterlimit="10" x1="25.596" y1="25.131" x2="21.803" y2="26.512"/>
				<line fill="none" stroke="#1D1D1B" stroke-miterlimit="10" x1="21.803" y1="26.512" x2="15.956" y2="28.639"/>
				<polyline fill="none" stroke="#1D1D1B" stroke-width="1.5" stroke-miterlimit="10" points="25.596,25.131 32.979,31.324 
					20.131,36 21.803,26.512 				"/>
				<path fill="none" stroke="#1D1D1B" stroke-miterlimit="10" d="M21.803,26.512"/>
				<path fill="none" stroke="#1D1D1B" stroke-miterlimit="10" d="M25.596,25.131"/>
			</g>
			<line fill="none" stroke="#1D1D1B" stroke-miterlimit="10" x1="16.403" y1="5.773" x2="23.699" y2="25.82"/>
		</g>
	</g>
</g>
</svg>
