<?xml version="1.0" encoding="utf-8"?>
<!-- Generator: Adobe Illustrator 16.0.0, SVG Export Plug-In . SVG Version: 6.00 Build 0)  -->
<!DOCTYPE svg PUBLIC "-//W3C//DTD SVG 1.1//EN" "http://www.w3.org/Graphics/SVG/1.1/DTD/svg11.dtd">
<svg version="1.1" id="Calque_1" xmlns="http://www.w3.org/2000/svg" xmlns:xlink="http://www.w3.org/1999/xlink" x="0px" y="0px"
	 width="39px" height="46px" viewBox="-3.5 0 39 46" enable-background="new -3.5 0 39 46" xml:space="preserve">
<g>
	<g>
		
			<line fill="none" stroke="#1D1D1B" stroke-miterlimit="10" stroke-dasharray="1.5" x1="15.566" y1="7.887" x2="8.445" y2="27.455"/>
		<g>
			<g>
				<g>
					<line fill="none" stroke="#1D1D1B" stroke-miterlimit="10" x1="0.558" y1="25.113" x2="1.262" y2="25.37"/>
					<polyline fill="none" stroke="#1D1D1B" stroke-miterlimit="10" stroke-dasharray="1.3619,1.3619" points="2.541,25.836 
						6.404,27.242 10.196,28.622 14.699,30.262 					"/>
					<line fill="none" stroke="#1D1D1B" stroke-miterlimit="10" x1="15.339" y1="30.493" x2="16.043" y2="30.75"/>
				</g>
			</g>
			<g>
				<g>
					
						<line fill="none" stroke="#1D1D1B" stroke-width="1.5" stroke-miterlimit="10" x1="10.196" y1="28.622" x2="10.326" y2="29.359"/>
					
						<line fill="none" stroke="#1D1D1B" stroke-width="1.5" stroke-miterlimit="10" stroke-dasharray="1.6273,1.6273" x1="10.608" y1="30.963" x2="11.599" y2="36.572"/>
					<polyline fill="none" stroke="#1D1D1B" stroke-width="1.5" stroke-miterlimit="10" points="11.739,37.374 11.869,38.111 
						11.165,37.855 					"/>
					
						<line fill="none" stroke="#1D1D1B" stroke-width="1.5" stroke-miterlimit="10" stroke-dasharray="1.3525,1.3525" x1="9.895" y1="37.395" x2="0.361" y2="33.924"/>
					<polyline fill="none" stroke="#1D1D1B" stroke-width="1.5" stroke-miterlimit="10" points="-0.273,33.691 -0.979,33.436 
						-0.403,32.953 					"/>
					
						<line fill="none" stroke="#1D1D1B" stroke-width="1.5" stroke-miterlimit="10" stroke-dasharray="1.6274,1.6274" x1="0.842" y1="31.906" x2="5.206" y2="28.247"/>
					<line fill="none" stroke="#1D1D1B" stroke-width="1.5" stroke-miterlimit="10" x1="5.83" y1="27.725" x2="6.404" y2="27.242"/>
				</g>
			</g>
			<path fill="none" stroke="#1D1D1B" stroke-miterlimit="10" d="M6.404,27.242"/>
			<path fill="none" stroke="#1D1D1B" stroke-miterlimit="10" d="M10.196,28.622"/>
		</g>
	</g>
	<g>
		<g>
			<line fill="none" stroke="#1D1D1B" stroke-miterlimit="10" x1="25.596" y1="27.244" x2="31.443" y2="25.116"/>
			<line fill="none" stroke="#1D1D1B" stroke-miterlimit="10" x1="25.596" y1="27.244" x2="21.803" y2="28.625"/>
			<line fill="none" stroke="#1D1D1B" stroke-miterlimit="10" x1="21.803" y1="28.625" x2="15.956" y2="30.753"/>
			<polyline fill="none" stroke="#1D1D1B" stroke-width="1.5" stroke-miterlimit="10" points="25.596,27.244 32.979,33.438 
				20.131,38.113 21.803,28.625 			"/>
			<path fill="none" stroke="#1D1D1B" stroke-miterlimit="10" d="M21.803,28.625"/>
			<path fill="none" stroke="#1D1D1B" stroke-miterlimit="10" d="M25.596,27.244"/>
		</g>
		<line fill="none" stroke="#1D1D1B" stroke-miterlimit="10" x1="16.403" y1="7.887" x2="23.699" y2="27.936"/>
	</g>
</g>
</svg>
