<?xml version="1.0" encoding="utf-8"?>
<!-- Generator: Adobe Illustrator 16.0.0, SVG Export Plug-In . SVG Version: 6.00 Build 0)  -->
<!DOCTYPE svg PUBLIC "-//W3C//DTD SVG 1.1//EN" "http://www.w3.org/Graphics/SVG/1.1/DTD/svg11.dtd">
<svg version="1.1" id="Calque_1" xmlns="http://www.w3.org/2000/svg" xmlns:xlink="http://www.w3.org/1999/xlink" x="0px" y="0px"
	 width="32px" height="32px" viewBox="0 0 32 32" enable-background="new 0 0 32 32" xml:space="preserve">
<g>
	<rect x="0.98" y="1.001" fill="none" stroke="#1D1D1B" stroke-miterlimit="10" width="30" height="30"/>
	<path fill="none" stroke="#1D1D1B" stroke-miterlimit="10" d="M30.98,31.001"/>
	<path fill="none" stroke="#1D1D1B" stroke-miterlimit="10" d="M0.98,1.001"/>
	<g>
		<path fill="none" stroke="#1D1D1B" stroke-width="0.5" stroke-miterlimit="10" d="M27.48,31.001c0-0.967,0.393-1.842,1.025-2.476"
			/>
		<path fill="none" stroke="#1D1D1B" stroke-width="0.5" stroke-miterlimit="10" d="M24.48,31.001c0-1.795,0.729-3.42,1.904-4.597"
			/>
		<path fill="none" stroke="#1D1D1B" stroke-width="0.5" stroke-miterlimit="10" d="M20.48,31.001c0-2.899,1.176-5.524,3.076-7.425"
			/>
		<path fill="none" stroke="#1D1D1B" stroke-width="0.5" stroke-miterlimit="10" d="M15.481,31.001c0-4.28,1.734-8.155,4.539-10.96"
			/>
		<path fill="none" stroke="#1D1D1B" stroke-width="0.5" stroke-miterlimit="10" d="M6.646,31.001
			c0-6.659,3.027-12.611,7.781-16.555"/>
		<path fill="none" stroke="#1D1D1B" stroke-width="0.5" stroke-miterlimit="10" d="M0.979,14.053
			C2.82,11.566,5.058,9.39,7.598,7.617"/>
	</g>
	<g>
		<path fill="none" stroke="#1D1D1B" stroke-width="0.5" stroke-miterlimit="10" d="M2.39,20.875
			c1.571,0.867,2.643,2.29,3.104,3.889"/>
		<path fill="none" stroke="#1D1D1B" stroke-width="0.5" stroke-miterlimit="10" d="M4.323,17.374
			c2.538,1.401,4.269,3.698,5.014,6.279"/>
		<path fill="none" stroke="#1D1D1B" stroke-width="0.5" stroke-miterlimit="10" d="M6.74,12.996c3.747,2.069,6.301,5.461,7.4,9.272
			"/>
		<path fill="none" stroke="#1D1D1B" stroke-width="0.5" stroke-miterlimit="10" d="M11.011,5.262
			c5.83,3.22,9.577,8.746,10.731,14.814"/>
		<path fill="none" stroke="#1D1D1B" stroke-width="0.5" stroke-miterlimit="10" d="M28.586,8.493
			c1.287,2.814,2.111,5.825,2.436,8.905"/>
		<path fill="none" stroke="#1D1D1B" stroke-width="0.5" stroke-miterlimit="10" d="M23.596,0.999
			c4.22,4.558,6.787,10.344,7.426,16.399"/>
	</g>
</g>
</svg>
