<?xml version="1.0" encoding="utf-8"?>
<!-- Generator: Adobe Illustrator 16.0.0, SVG Export Plug-In . SVG Version: 6.00 Build 0)  -->
<!DOCTYPE svg PUBLIC "-//W3C//DTD SVG 1.1//EN" "http://www.w3.org/Graphics/SVG/1.1/DTD/svg11.dtd">
<svg version="1.1" id="Calque_1" xmlns="http://www.w3.org/2000/svg" xmlns:xlink="http://www.w3.org/1999/xlink" x="0px" y="0px"
	 width="32px" height="32px" viewBox="0 0 32 32" enable-background="new 0 0 32 32" xml:space="preserve">
<g>
	<g>
		<g>
			<polyline fill="none" stroke="#1D1D1B" stroke-miterlimit="10" points="2.5,31 1,31 1,29.5 			"/>
			<polyline fill="none" stroke="#1D1D1B" stroke-miterlimit="10" stroke-dasharray="2.8311,2.8311" points="1,26.669 1,11 
				8.938,3.062 			"/>
			<polyline fill="none" stroke="#1D1D1B" stroke-miterlimit="10" points="9.939,2.061 11,1 12.5,1 			"/>
			
				<line fill="none" stroke="#1D1D1B" stroke-miterlimit="10" stroke-dasharray="3.4001,3.4001" x1="15.899" y1="1" x2="27.8" y2="1"/>
			<polyline fill="none" stroke="#1D1D1B" stroke-miterlimit="10" points="29.5,1 31,1 31,2.5 			"/>
			<polyline fill="none" stroke="#1D1D1B" stroke-miterlimit="10" stroke-dasharray="3.0084,3.0084" points="31,5.508 31,21 21,31 
				4.004,31 			"/>
		</g>
	</g>
	<g>
		<path fill="none" d="M21,11"/>
	</g>
	<g>
		<g>
			<line fill="none" stroke="#1D1D1B" stroke-miterlimit="10" x1="21" y1="11" x2="22.061" y2="9.939"/>
			
				<line fill="none" stroke="#1D1D1B" stroke-miterlimit="10" stroke-dasharray="3.714,3.714" x1="24.687" y1="7.313" x2="28.626" y2="3.374"/>
			<line fill="none" stroke="#1D1D1B" stroke-miterlimit="10" x1="29.939" y1="2.061" x2="31" y2="1"/>
		</g>
	</g>
	<g>
		<g>
			<line fill="none" stroke="#1D1D1B" stroke-miterlimit="10" x1="21" y1="11" x2="21" y2="12.5"/>
			<line fill="none" stroke="#1D1D1B" stroke-miterlimit="10" stroke-dasharray="3.4,3.4" x1="21" y1="15.9" x2="21" y2="27.8"/>
			<line fill="none" stroke="#1D1D1B" stroke-miterlimit="10" x1="21" y1="29.5" x2="21" y2="31"/>
		</g>
	</g>
	<g>
		<g>
			<line fill="none" stroke="#1D1D1B" stroke-miterlimit="10" x1="1" y1="11" x2="2.5" y2="11"/>
			<line fill="none" stroke="#1D1D1B" stroke-miterlimit="10" stroke-dasharray="3.4,3.4" x1="5.9" y1="11" x2="17.8" y2="11"/>
			<line fill="none" stroke="#1D1D1B" stroke-miterlimit="10" x1="19.5" y1="11" x2="21" y2="11"/>
		</g>
	</g>
</g>
</svg>
