<?xml version="1.0" encoding="utf-8"?>
<!-- Generator: Adobe Illustrator 16.0.0, SVG Export Plug-In . SVG Version: 6.00 Build 0)  -->
<!DOCTYPE svg PUBLIC "-//W3C//DTD SVG 1.1//EN" "http://www.w3.org/Graphics/SVG/1.1/DTD/svg11.dtd">
<svg version="1.1" id="Calque_1" xmlns="http://www.w3.org/2000/svg" xmlns:xlink="http://www.w3.org/1999/xlink" x="0px" y="0px"
	 width="32px" height="32px" viewBox="0 0 32 32" enable-background="new 0 0 32 32" xml:space="preserve">
<g>
	<path fill="none" stroke="#1D1D1B" stroke-miterlimit="10" d="M31,20.346c0,3.484-6.715,6.309-15,6.309c-8.284,0-15-2.824-15-6.309
		"/>
	<path fill="none" stroke="#1D1D1B" stroke-miterlimit="10" d="M16,14.037"/>
	<path fill="none" stroke="#1D1D1B" stroke-miterlimit="10" d="M1,20.346c0-8.283,6.716-15,15-15c8.286,0,15,6.717,15,15"/>
	<path fill="none" stroke="#1D1D1B" stroke-miterlimit="10" d="M15.417,5.346c4.833,0,9.35,8.691,9.35,19.93"/>
	<path fill="none" stroke="#1D1D1B" stroke-miterlimit="10" d="M16.584,5.346c-4.833,0-9.35,8.691-9.35,19.93"/>
	<line fill="none" stroke="#1D1D1B" stroke-miterlimit="10" x1="16" y1="5.346" x2="16" y2="26.654"/>
	<path fill="none" stroke="#1D1D1B" stroke-miterlimit="10" d="M28.879,14.037c0,2.992-5.766,5.416-12.878,5.416
		c-7.112,0-12.878-2.424-12.878-5.416"/>
	<path fill="none" stroke="#1D1D1B" stroke-miterlimit="10" d="M24.857,7.595c0,2.059-3.965,3.726-8.858,3.726
		c-4.891,0-8.856-1.667-8.856-3.726"/>
</g>
</svg>
