<?xml version="1.0" encoding="utf-8"?>
<!-- Generator: Adobe Illustrator 16.0.0, SVG Export Plug-In . SVG Version: 6.00 Build 0)  -->
<!DOCTYPE svg PUBLIC "-//W3C//DTD SVG 1.1//EN" "http://www.w3.org/Graphics/SVG/1.1/DTD/svg11.dtd">
<svg version="1.1" id="Calque_1" xmlns="http://www.w3.org/2000/svg" xmlns:xlink="http://www.w3.org/1999/xlink" x="0px" y="0px"
	 width="32px" height="32px" viewBox="0 0 32 32" enable-background="new 0 0 32 32" xml:space="preserve">
<g>
	<path fill="none" stroke="#1B171C" stroke-miterlimit="10" stroke-dasharray="3" d="M31,20.667C31,11.462,23.538,4,14.333,4
		C6.97,4,1,9.97,1,17.333C1,23.225,5.775,28,11.667,28c4.712,0,8.533-3.82,8.533-8.533c0-3.771-3.057-6.827-6.827-6.827
		c-3.017,0-5.461,2.445-5.461,5.462"/>
	<path fill="none" stroke="#1B171C" stroke-width="2" stroke-miterlimit="10" d="M2.68,23.082C4.576,26.04,7.893,28,11.667,28
		c4.712,0,8.533-3.82,8.533-8.533c0-3.771-3.057-6.827-6.827-6.827c-3.017,0-5.461,2.445-5.461,5.462"/>
	<line fill="none" stroke="#1B171C" stroke-width="2" stroke-miterlimit="10" x1="7.943" y1="11.541" x2="7.956" y2="18.054"/>
</g>
</svg>
