<?xml version="1.0" encoding="utf-8"?>
<!-- Generator: Adobe Illustrator 16.0.0, SVG Export Plug-In . SVG Version: 6.00 Build 0)  -->
<!DOCTYPE svg PUBLIC "-//W3C//DTD SVG 1.1//EN" "http://www.w3.org/Graphics/SVG/1.1/DTD/svg11.dtd">
<svg version="1.1" id="Calque_1" xmlns="http://www.w3.org/2000/svg" xmlns:xlink="http://www.w3.org/1999/xlink" x="0px" y="0px"
	 width="32px" height="32px" viewBox="0 0 32 32" enable-background="new 0 0 32 32" xml:space="preserve">
<g>
	<g>
		<rect x="4.5" y="1.487" fill="none" stroke="#000100" stroke-miterlimit="10" width="23" height="23"/>
		<g>
			<path fill="#000100" d="M13.264,8.129l2.263-2.896h-1.561l-1.044,1.332c-0.149,0.188-0.298,0.375-0.445,0.564l-1.478-1.896H9.438
				l2.248,2.904l-2.385,3.096h1.549l1.626-2.103l1.642,2.103h1.549L13.264,8.129z"/>
			<path fill="#000100" d="M16.47,8.587c0,0.39-0.314,0.704-0.701,0.704c-0.389,0-0.703-0.314-0.703-0.704
				c0-0.387,0.314-0.701,0.703-0.701C16.155,7.886,16.47,8.2,16.47,8.587z"/>
			<path fill="#000100" d="M9.901,8.587c0,0.39-0.312,0.704-0.703,0.704c-0.387,0-0.701-0.314-0.701-0.704
				c0-0.387,0.314-0.701,0.701-0.701C9.59,7.886,9.901,8.2,9.901,8.587z"/>
		</g>
		<g>
			<path fill="#000100" d="M22.072,19.221l2.263-2.896h-1.561l-1.044,1.332c-0.149,0.188-0.298,0.375-0.445,0.563l-1.478-1.896
				h-1.561l2.248,2.904l-2.385,3.096h1.549l1.626-2.104l1.642,2.104h1.549L22.072,19.221z"/>
			<path fill="#000100" d="M25.278,19.678c0,0.391-0.314,0.705-0.701,0.705c-0.389,0-0.703-0.314-0.703-0.705
				c0-0.387,0.314-0.701,0.703-0.701C24.964,18.977,25.278,19.291,25.278,19.678z"/>
			<path fill="#000100" d="M18.71,19.678c0,0.391-0.312,0.705-0.703,0.705c-0.387,0-0.701-0.314-0.701-0.705
				c0-0.387,0.314-0.701,0.701-0.701C18.398,18.977,18.71,19.291,18.71,19.678z"/>
		</g>
	</g>
	<polyline fill="none" stroke="#1D1D1B" stroke-width="1.5" stroke-miterlimit="10" points="11.5,30.513 16,27.299 20.5,30.513 	"/>
</g>
</svg>
