<?xml version="1.0" encoding="utf-8"?>
<!-- Generator: Adobe Illustrator 16.0.0, SVG Export Plug-In . SVG Version: 6.00 Build 0)  -->
<!DOCTYPE svg PUBLIC "-//W3C//DTD SVG 1.1//EN" "http://www.w3.org/Graphics/SVG/1.1/DTD/svg11.dtd">
<svg version="1.1" id="Calque_1" xmlns="http://www.w3.org/2000/svg" xmlns:xlink="http://www.w3.org/1999/xlink" x="0px" y="0px"
	 width="32px" height="32px" viewBox="0 0 32 32" enable-background="new 0 0 32 32" xml:space="preserve">
<g>
	<g>
		<g>
			<rect x="4.5" y="1.487" fill="none" stroke="#000100" stroke-miterlimit="10" width="23" height="23"/>
		</g>
		<g>
			<g>
				<g transform="matrix(4.16667,0,0,4.16667,322.642,430.61)">
					<path vector-effect="non-scaling-stroke" d="M-74.658-101.466l-0.04-0.061c-0.017-0.028-0.041-0.07-0.07-0.126
						c-0.03-0.056-0.076-0.139-0.076-0.139c-0.048-0.037-0.093-0.052-0.158-0.091c-0.042-0.025-0.113-0.033-0.149-0.046
						c-0.035-0.012-0.073-0.012-0.114,0l-0.019,0.006c-0.046,0.014-0.065,0.033-0.058,0.054c0.006,0.021,0.018,0.036,0.034,0.046
						c0.017,0.01,0.033,0.016,0.05,0.018c0.017,0.002,0.033,0.008,0.049,0.018c0.015,0.01,0.026,0.026,0.033,0.046
						c0.012,0.037,0.009,0.072-0.009,0.107c-0.018,0.034-0.045,0.057-0.08,0.068c-0.05,0.016-0.096,0.005-0.139-0.033
						c-0.043-0.037-0.074-0.088-0.094-0.152c-0.017-0.052-0.003-0.1,0.04-0.143c0.043-0.043,0.101-0.076,0.173-0.099
						c0.142-0.044,0.234,0.017,0.388,0.114c0.17,0.106,0.264,0.194,0.387,0.338l0.039,0.062l0.548,0.724
						c0.009,0.015,0.024,0.041,0.045,0.077s0.037,0.064,0.049,0.083c0.011,0.019,0.027,0.042,0.048,0.069
						c0.02,0.026,0.039,0.045,0.057,0.056c0.017,0.011,0.039,0.02,0.063,0.025c0.025,0.005,0.05,0.004,0.076-0.004l0.021-0.007
						c0.045-0.014,0.063-0.032,0.056-0.053c-0.006-0.02-0.017-0.036-0.033-0.046c-0.016-0.011-0.032-0.016-0.05-0.018
						c-0.017-0.001-0.034-0.007-0.05-0.018c-0.016-0.01-0.027-0.026-0.034-0.046c-0.011-0.037-0.007-0.072,0.011-0.106
						c0.019-0.034,0.046-0.057,0.081-0.068c0.049-0.015,0.095-0.005,0.137,0.033c0.041,0.037,0.073,0.088,0.093,0.151
						c0.017,0.053,0.004,0.102-0.04,0.144c-0.043,0.042-0.101,0.075-0.173,0.097c-0.069,0.022-0.097-0.011-0.186-0.04
						c-0.088-0.028-0.101-0.105-0.183-0.167c-0.083-0.063-0.124-0.126-0.195-0.199c-0.071-0.073-0.131-0.135-0.18-0.206
						L-74.658-101.466"/>
				</g>
				<path d="M17.403,10.911c0.081,0.568-0.313,1.098-0.883,1.178c-0.567,0.083-1.098-0.312-1.177-0.881
					c-0.084-0.57,0.312-1.098,0.879-1.18C16.792,9.946,17.32,10.341,17.403,10.911z"/>
				<path d="M9.92,6.911c0.081,0.568-0.313,1.098-0.883,1.178C8.47,8.172,7.939,7.776,7.86,7.208
					c-0.084-0.57,0.312-1.098,0.879-1.18C9.309,5.946,9.837,6.341,9.92,6.911z"/>
			</g>
			<g>
				<g transform="matrix(4.16667,0,0,4.16667,322.642,430.61)">
					<path vector-effect="non-scaling-stroke" d="M-74.806-101l0.372-0.448c0.058-0.068,0.125-0.136,0.204-0.203
						c0.079-0.068,0.164-0.13,0.254-0.186c0.089-0.056,0.181-0.094,0.273-0.114c0.093-0.02,0.173-0.016,0.242,0.012
						c0.071,0.03,0.128,0.069,0.168,0.116c0.04,0.047,0.049,0.098,0.026,0.15c-0.026,0.063-0.156-0.116-0.148-0.135
						c0.009-0.022-0.008-0.042-0.052-0.06l-0.021-0.009c-0.025-0.01-0.051-0.014-0.077-0.011c-0.025,0.003-0.048,0.01-0.067,0.02
						c-0.019,0.01-0.04,0.027-0.064,0.053c-0.023,0.025-0.041,0.047-0.055,0.066c-0.014,0.018-0.033,0.045-0.057,0.08
						c-0.026,0.035-0.044,0.06-0.054,0.075l-0.564,0.754l-0.045,0.059c-0.111,0.138-0.253,0.24-0.427,0.309
						c-0.173,0.068-0.33,0.073-0.471,0.014c-0.071-0.03-0.127-0.069-0.167-0.117c-0.041-0.048-0.05-0.098-0.028-0.15
						c0.026-0.063,0.156,0.116,0.147,0.135c-0.008,0.022,0.01,0.042,0.055,0.061l0.019,0.007c0.041,0.017,0.08,0.021,0.116,0.011
						c0.037-0.009,0.073-0.032,0.108-0.068c0.034-0.036,0.064-0.072,0.089-0.107c0.025-0.035,0.056-0.081,0.09-0.135
						c0.036-0.054,0.063-0.095,0.084-0.122L-74.806-101"/>
				</g>
			</g>
		</g>
	</g>
	<polyline fill="none" stroke="#1D1D1B" stroke-width="1.5" stroke-miterlimit="10" points="11.5,30.513 16,27.3 20.5,30.513 	"/>
</g>
</svg>
