<?xml version="1.0" encoding="utf-8"?>
<!-- Generator: Adobe Illustrator 16.0.4, SVG Export Plug-In . SVG Version: 6.00 Build 0)  -->
<!DOCTYPE svg PUBLIC "-//W3C//DTD SVG 1.1//EN" "http://www.w3.org/Graphics/SVG/1.1/DTD/svg11.dtd">
<svg version="1.1" id="Calque_1" xmlns="http://www.w3.org/2000/svg" xmlns:xlink="http://www.w3.org/1999/xlink" x="0px" y="0px"
	 width="32px" height="32px" viewBox="0 0 32 32" enable-background="new 0 0 32 32" xml:space="preserve">
<g>
	<g>
		<g>
			<g>
				<g>
					
						<line fill="none" stroke="#1D1D1B" stroke-width="0.75" stroke-miterlimit="10" x1="30.514" y1="1.291" x2="30.514" y2="1.791"/>
					
						<line fill="none" stroke="#1D1D1B" stroke-width="0.75" stroke-miterlimit="10" stroke-dasharray="1.0356,1.0356" x1="30.514" y1="2.827" x2="30.514" y2="18.88"/>
					<polyline fill="none" stroke="#1D1D1B" stroke-width="0.75" stroke-miterlimit="10" points="30.514,19.396 30.514,19.896 
						30.014,19.896 					"/>
					
						<line fill="none" stroke="#1D1D1B" stroke-width="0.75" stroke-miterlimit="10" stroke-dasharray="1.0357,1.0357" x1="28.977" y1="19.896" x2="12.921" y2="19.896"/>
					<polyline fill="none" stroke="#1D1D1B" stroke-width="0.75" stroke-miterlimit="10" points="12.403,19.896 11.903,19.896 
						11.903,19.396 					"/>
					
						<line fill="none" stroke="#1D1D1B" stroke-width="0.75" stroke-miterlimit="10" stroke-dasharray="1.0356,1.0356" x1="11.903" y1="18.359" x2="11.903" y2="2.31"/>
					
						<line fill="none" stroke="#1D1D1B" stroke-width="0.75" stroke-miterlimit="10" x1="11.903" y1="1.791" x2="11.903" y2="1.291"/>
				</g>
			</g>
			<g>
				<g>
					
						<line fill="none" stroke="#1D1D1B" stroke-width="0.75" stroke-miterlimit="10" x1="11.903" y1="19.896" x2="11.479" y2="20.159"/>
					
						<line fill="none" stroke="#1D1D1B" stroke-width="0.75" stroke-miterlimit="10" stroke-dasharray="1.03,1.03" x1="10.603" y1="20.7" x2="2.28" y2="25.85"/>
					
						<line fill="none" stroke="#1D1D1B" stroke-width="0.75" stroke-miterlimit="10" x1="1.843" y1="26.12" x2="1.417" y2="26.384"/>
				</g>
			</g>
			<g>
				<g>
					
						<line fill="none" stroke="#1D1D1B" stroke-width="0.75" stroke-miterlimit="10" x1="30.583" y1="20.091" x2="30.286" y2="20.491"/>
					
						<line fill="none" stroke="#1D1D1B" stroke-width="0.75" stroke-miterlimit="10" stroke-dasharray="0.9763,0.9763" x1="29.704" y1="21.273" x2="26.507" y2="25.589"/>
					
						<line fill="none" stroke="#1D1D1B" stroke-width="0.75" stroke-miterlimit="10" x1="26.216" y1="25.98" x2="25.917" y2="26.384"/>
				</g>
			</g>
			
				<line fill="none" stroke="#000100" stroke-width="0.5" stroke-miterlimit="10" x1="20.585" y1="23.143" x2="24.585" y2="23.143"/>
			<g>
				<g>
					<g transform="matrix(4.16667,0,0,4.16667,322.642,430.61)">
						<path vector-effect="non-scaling-stroke" d="M-71.972-101.048l-0.037-0.056c-0.015-0.027-0.038-0.066-0.066-0.119
							c-0.028-0.053-0.072-0.13-0.072-0.13c-0.043-0.036-0.086-0.049-0.149-0.085c-0.039-0.022-0.108-0.032-0.139-0.043
							c-0.034-0.011-0.07-0.011-0.108,0l-0.017,0.006c-0.043,0.013-0.061,0.03-0.055,0.051c0.005,0.019,0.017,0.034,0.032,0.043
							c0.015,0.009,0.032,0.015,0.047,0.017c0.015,0.002,0.03,0.008,0.046,0.017c0.015,0.009,0.026,0.024,0.032,0.043
							c0.011,0.034,0.008,0.068-0.01,0.1c-0.017,0.032-0.041,0.055-0.075,0.064c-0.047,0.015-0.09,0.004-0.13-0.032
							c-0.04-0.036-0.07-0.083-0.089-0.143c-0.015-0.049-0.002-0.094,0.038-0.134c0.041-0.041,0.095-0.072,0.163-0.092
							c0.134-0.042,0.22,0.017,0.366,0.108c0.161,0.1,0.249,0.183,0.364,0.319l0.036,0.058l0.515,0.681
							c0.01,0.015,0.023,0.04,0.041,0.072c0.021,0.034,0.036,0.06,0.047,0.079c0.011,0.017,0.026,0.04,0.045,0.064
							c0.019,0.024,0.038,0.043,0.054,0.053c0.015,0.009,0.036,0.019,0.059,0.023c0.024,0.006,0.047,0.004,0.072-0.004l0.019-0.006
							c0.041-0.013,0.058-0.03,0.053-0.051c-0.006-0.019-0.017-0.034-0.03-0.043c-0.015-0.009-0.03-0.015-0.047-0.017
							c-0.017-0.002-0.032-0.008-0.047-0.017c-0.015-0.009-0.026-0.024-0.032-0.043c-0.011-0.036-0.008-0.068,0.009-0.1
							c0.017-0.032,0.043-0.053,0.077-0.064c0.045-0.015,0.088-0.004,0.128,0.03c0.04,0.036,0.068,0.083,0.087,0.141
							c0.015,0.051,0.004,0.096-0.037,0.136c-0.039,0.04-0.094,0.07-0.162,0.092c-0.064,0.021-0.092-0.011-0.176-0.038
							c-0.083-0.026-0.094-0.098-0.171-0.157c-0.078-0.058-0.117-0.119-0.183-0.187c-0.066-0.068-0.123-0.126-0.17-0.194
							L-71.972-101.048"/>
					</g>
					<circle cx="27.284" cy="12.609" r="0.979"/>
					<circle cx="20.242" cy="8.844" r="0.979"/>
				</g>
				<g>
					<g transform="matrix(4.16667,0,0,4.16667,322.642,430.61)">
						<path vector-effect="non-scaling-stroke" d="M-72.109-100.611l0.348-0.42c0.055-0.064,0.118-0.128,0.193-0.191
							c0.075-0.064,0.155-0.123,0.24-0.176c0.085-0.053,0.17-0.089,0.256-0.107c0.087-0.019,0.165-0.015,0.228,0.011
							c0.068,0.028,0.121,0.064,0.158,0.109c0.038,0.045,0.045,0.092,0.025,0.141c-0.025,0.058-0.147-0.109-0.14-0.128
							c0.01-0.021-0.007-0.04-0.049-0.057l-0.021-0.009c-0.024-0.009-0.047-0.013-0.072-0.009c-0.024,0.004-0.045,0.009-0.062,0.019
							c-0.019,0.009-0.038,0.026-0.06,0.049c-0.021,0.023-0.037,0.045-0.051,0.062s-0.03,0.043-0.055,0.075
							c-0.024,0.034-0.041,0.057-0.051,0.07l-0.53,0.709l-0.041,0.057c-0.103,0.13-0.24,0.226-0.401,0.29
							c-0.163,0.064-0.311,0.068-0.443,0.013c-0.068-0.028-0.119-0.064-0.157-0.109c-0.037-0.045-0.047-0.092-0.026-0.142
							c0.024-0.06,0.147,0.109,0.137,0.128c-0.007,0.021,0.01,0.04,0.053,0.057l0.017,0.007c0.04,0.015,0.076,0.019,0.11,0.011
							c0.035-0.007,0.07-0.03,0.102-0.064c0.032-0.034,0.06-0.068,0.085-0.102c0.025-0.034,0.053-0.075,0.085-0.126
							c0.034-0.051,0.058-0.089,0.08-0.115L-72.109-100.611"/>
					</g>
				</g>
			</g>
		</g>
	</g>
	<polyline fill="none" stroke="#1D1D1B" stroke-width="1.5" stroke-miterlimit="10" points="11.5,30.709 16,27.495 20.5,30.709 	"/>
</g>
</svg>
