<?xml version="1.0" encoding="utf-8"?>
<!-- Generator: Adobe Illustrator 16.0.4, SVG Export Plug-In . SVG Version: 6.00 Build 0)  -->
<!DOCTYPE svg PUBLIC "-//W3C//DTD SVG 1.1//EN" "http://www.w3.org/Graphics/SVG/1.1/DTD/svg11.dtd">
<svg version="1.1" id="Calque_1" xmlns="http://www.w3.org/2000/svg" xmlns:xlink="http://www.w3.org/1999/xlink" x="0px" y="0px"
	 width="32px" height="32px" viewBox="0 0 32 32" enable-background="new 0 0 32 32" xml:space="preserve">
<g>
	<g>
		<g>
			<g>
				<g>
					
						<line fill="none" stroke="#1D1D1B" stroke-width="0.75" stroke-miterlimit="10" x1="30.512" y1="1.291" x2="30.512" y2="1.791"/>
					
						<line fill="none" stroke="#1D1D1B" stroke-width="0.75" stroke-miterlimit="10" stroke-dasharray="1.0357,1.0357" x1="30.512" y1="2.827" x2="30.512" y2="18.88"/>
					<polyline fill="none" stroke="#1D1D1B" stroke-width="0.75" stroke-miterlimit="10" points="30.512,19.396 30.512,19.896 
						30.012,19.896 					"/>
					
						<line fill="none" stroke="#1D1D1B" stroke-width="0.75" stroke-miterlimit="10" stroke-dasharray="1.0357,1.0357" x1="28.975" y1="19.896" x2="12.921" y2="19.896"/>
					<polyline fill="none" stroke="#1D1D1B" stroke-width="0.75" stroke-miterlimit="10" points="12.403,19.896 11.903,19.896 
						11.903,19.396 					"/>
					
						<line fill="none" stroke="#1D1D1B" stroke-width="0.75" stroke-miterlimit="10" stroke-dasharray="1.0357,1.0357" x1="11.903" y1="18.359" x2="11.903" y2="2.31"/>
					
						<line fill="none" stroke="#1D1D1B" stroke-width="0.75" stroke-miterlimit="10" x1="11.903" y1="1.791" x2="11.903" y2="1.291"/>
				</g>
			</g>
			<g>
				<g>
					
						<line fill="none" stroke="#1D1D1B" stroke-width="0.75" stroke-miterlimit="10" x1="11.903" y1="19.896" x2="11.478" y2="20.159"/>
					
						<line fill="none" stroke="#1D1D1B" stroke-width="0.75" stroke-miterlimit="10" stroke-dasharray="1.0301,1.0301" x1="10.603" y1="20.702" x2="2.278" y2="25.85"/>
					
						<line fill="none" stroke="#1D1D1B" stroke-width="0.75" stroke-miterlimit="10" x1="1.841" y1="26.12" x2="1.417" y2="26.383"/>
				</g>
			</g>
			<g>
				<g>
					
						<line fill="none" stroke="#1D1D1B" stroke-width="0.75" stroke-miterlimit="10" x1="30.583" y1="20.09" x2="30.284" y2="20.491"/>
					
						<line fill="none" stroke="#1D1D1B" stroke-width="0.75" stroke-miterlimit="10" stroke-dasharray="0.9763,0.9763" x1="29.704" y1="21.273" x2="26.505" y2="25.589"/>
					
						<line fill="none" stroke="#1D1D1B" stroke-width="0.75" stroke-miterlimit="10" x1="26.214" y1="25.98" x2="25.917" y2="26.383"/>
				</g>
			</g>
			<g>
				
					<line fill="none" stroke="#000100" stroke-width="0.5" stroke-miterlimit="10" x1="15.978" y1="23.854" x2="20.343" y2="23.854"/>
				<ellipse fill="#000100" cx="18.755" cy="22.465" rx="0.595" ry="0.312"/>
				<ellipse fill="#000100" cx="17.493" cy="25.236" rx="0.596" ry="0.318"/>
			</g>
			<g>
				<g>
					<path fill="#000100" d="M20.301,13.646c-0.533,0-0.963-0.429-0.963-0.962c0-0.528,0.43-0.958,0.963-0.958
						c0.529,0,0.961,0.43,0.961,0.958C21.262,13.217,20.83,13.646,20.301,13.646z"/>
					<path fill="#000100" d="M20.301,4.658c-0.533,0-0.963-0.431-0.963-0.962c0-0.53,0.43-0.962,0.963-0.962
						c0.529,0,0.961,0.432,0.961,0.962C21.262,4.231,20.83,4.658,20.301,4.658z"/>
				</g>
				<g>
					<g>
						<g transform="matrix(4.16667,0,0,4.16667,322.642,430.61)">
							<path vector-effect="non-scaling-stroke" d="M-72.85-101.706l-0.047-0.071c-0.02-0.033-0.047-0.082-0.082-0.148
								c-0.035-0.066-0.09-0.164-0.09-0.164c-0.057-0.044-0.109-0.062-0.186-0.107c-0.049-0.028-0.134-0.039-0.175-0.054
								c-0.041-0.014-0.087-0.014-0.134,0l-0.024,0.008c-0.054,0.017-0.077,0.038-0.068,0.063c0.008,0.024,0.021,0.043,0.039,0.054
								c0.021,0.013,0.04,0.019,0.058,0.022c0.021,0.002,0.039,0.009,0.058,0.021c0.019,0.013,0.031,0.03,0.039,0.055
								c0.014,0.044,0.011,0.085-0.011,0.126c-0.022,0.041-0.052,0.068-0.095,0.08c-0.058,0.019-0.113,0.006-0.164-0.039
								c-0.05-0.044-0.088-0.104-0.111-0.18c-0.02-0.061-0.003-0.117,0.047-0.167c0.051-0.051,0.118-0.09,0.203-0.117
								c0.167-0.052,0.276,0.021,0.457,0.134c0.202,0.125,0.312,0.229,0.455,0.397l0.046,0.073l0.645,0.853
								c0.011,0.019,0.028,0.049,0.053,0.092c0.024,0.043,0.044,0.076,0.058,0.098c0.013,0.022,0.033,0.051,0.057,0.08
								c0.024,0.03,0.047,0.054,0.068,0.066c0.02,0.013,0.045,0.024,0.074,0.03c0.028,0.006,0.058,0.005,0.09-0.005l0.024-0.008
								c0.052-0.017,0.074-0.038,0.066-0.063c-0.008-0.024-0.02-0.043-0.039-0.054c-0.019-0.013-0.038-0.019-0.058-0.022
								c-0.021-0.002-0.041-0.008-0.058-0.021c-0.019-0.013-0.032-0.03-0.04-0.055c-0.013-0.044-0.009-0.085,0.013-0.125
								c0.022-0.04,0.053-0.066,0.096-0.08c0.058-0.019,0.112-0.005,0.16,0.038c0.049,0.044,0.086,0.104,0.109,0.178
								c0.019,0.063,0.005,0.12-0.047,0.17c-0.049,0.049-0.118,0.088-0.203,0.115c-0.08,0.025-0.115-0.014-0.219-0.047
								c-0.104-0.033-0.118-0.125-0.216-0.197c-0.098-0.074-0.145-0.148-0.229-0.235c-0.084-0.085-0.153-0.159-0.213-0.243
								L-72.85-101.706"/>
						</g>
						<circle cx="24.764" cy="10.638" r="1.227"/>
						<circle cx="15.945" cy="5.926" r="1.227"/>
					</g>
					<g>
						<g transform="matrix(4.16667,0,0,4.16667,322.642,430.61)">
							<path vector-effect="non-scaling-stroke" d="M-73.024-101.155l0.438-0.527c0.068-0.08,0.146-0.161,0.24-0.24
								c0.093-0.08,0.193-0.153,0.3-0.219c0.106-0.066,0.213-0.11,0.322-0.136c0.109-0.024,0.203-0.019,0.285,0.014
								c0.083,0.035,0.15,0.08,0.197,0.137c0.047,0.055,0.059,0.115,0.032,0.176c-0.03,0.074-0.184-0.136-0.175-0.159
								c0.011-0.025-0.009-0.049-0.062-0.071l-0.025-0.011c-0.03-0.013-0.06-0.016-0.09-0.013c-0.03,0.003-0.056,0.011-0.079,0.024
								c-0.022,0.011-0.047,0.033-0.076,0.062c-0.027,0.03-0.047,0.055-0.065,0.077c-0.016,0.022-0.039,0.054-0.068,0.095
								c-0.03,0.041-0.052,0.071-0.063,0.088l-0.664,0.888l-0.054,0.069c-0.131,0.162-0.298,0.282-0.503,0.364
								c-0.204,0.08-0.39,0.085-0.555,0.017c-0.084-0.036-0.15-0.082-0.196-0.139c-0.047-0.057-0.058-0.115-0.033-0.177
								c0.031-0.074,0.184,0.136,0.174,0.159c-0.01,0.025,0.011,0.049,0.064,0.071l0.022,0.009c0.047,0.021,0.095,0.025,0.137,0.014
								c0.044-0.011,0.087-0.038,0.128-0.08c0.041-0.043,0.076-0.085,0.106-0.126c0.03-0.041,0.065-0.095,0.106-0.159
								c0.042-0.063,0.074-0.112,0.099-0.143L-73.024-101.155"/>
						</g>
					</g>
				</g>
			</g>
		</g>
	</g>
	<polyline fill="none" stroke="#1D1D1B" stroke-width="1.5" stroke-miterlimit="10" points="11.5,30.709 16,27.494 20.5,30.709 	"/>
</g>
</svg>
