<?xml version="1.0" encoding="utf-8"?>
<!-- Generator: Adobe Illustrator 16.0.0, SVG Export Plug-In . SVG Version: 6.00 Build 0)  -->
<!DOCTYPE svg PUBLIC "-//W3C//DTD SVG 1.1//EN" "http://www.w3.org/Graphics/SVG/1.1/DTD/svg11.dtd">
<svg version="1.1" id="Calque_1" xmlns="http://www.w3.org/2000/svg" xmlns:xlink="http://www.w3.org/1999/xlink" x="0px" y="0px"
	 width="32px" height="32px" viewBox="0 0 32 32" enable-background="new 0 0 32 32" xml:space="preserve">
<g>
	<path fill="none" stroke="#1B171C" stroke-miterlimit="10" stroke-dasharray="3" d="M17.259,3.211
		c7.601,1.273,12.729,8.467,11.453,16.066"/>
	<path fill="none" stroke="#1B171C" stroke-miterlimit="10" stroke-dasharray="3" d="M27.266,23.542
		c-2.744,5.143-8.553,8.207-14.619,7.189C5.048,29.458-0.081,22.265,1.194,14.665c0.228-1.366,0.647-2.652,1.227-3.836"/>
	<path fill="none" stroke="#1B171C" stroke-width="2" stroke-miterlimit="10" d="M6.43,5.925c2.357-1.821,5.313-2.906,8.523-2.906
		c7.707,0,13.953,6.247,13.953,13.953L31,11.288"/>
	<path fill="none" stroke="#1B171C" stroke-width="2" stroke-miterlimit="10" d="M28.936,16.088
		c-0.172-2.974-1.296-5.916-3.403-8.338c-5.059-5.813-13.87-6.424-19.684-1.366l2.913-5.31"/>
</g>
</svg>
