<?xml version="1.0" encoding="utf-8"?>
<!-- Generator: Adobe Illustrator 16.0.4, SVG Export Plug-In . SVG Version: 6.00 Build 0)  -->
<!DOCTYPE svg PUBLIC "-//W3C//DTD SVG 1.1//EN" "http://www.w3.org/Graphics/SVG/1.1/DTD/svg11.dtd">
<svg version="1.1" id="Calque_1" xmlns="http://www.w3.org/2000/svg" xmlns:xlink="http://www.w3.org/1999/xlink" x="0px" y="0px"
	 width="32px" height="32px" viewBox="0 0 32 32" enable-background="new 0 0 32 32" xml:space="preserve">
<g>
	<g>
		<g>
			<line fill="none" stroke="#1D1D1B" stroke-width="0.75" stroke-miterlimit="10" x1="30.512" y1="3.454" x2="30.512" y2="3.954"/>
			
				<line fill="none" stroke="#1D1D1B" stroke-width="0.75" stroke-miterlimit="10" stroke-dasharray="1.0357,1.0357" x1="30.512" y1="4.99" x2="30.512" y2="21.042"/>
			<polyline fill="none" stroke="#1D1D1B" stroke-width="0.75" stroke-miterlimit="10" points="30.512,21.561 30.512,22.061 
				30.012,22.061 			"/>
			
				<line fill="none" stroke="#1D1D1B" stroke-width="0.75" stroke-miterlimit="10" stroke-dasharray="1.0357,1.0357" x1="28.975" y1="22.061" x2="12.922" y2="22.061"/>
			<polyline fill="none" stroke="#1D1D1B" stroke-width="0.75" stroke-miterlimit="10" points="12.404,22.061 11.904,22.061 
				11.904,21.561 			"/>
			
				<line fill="none" stroke="#1D1D1B" stroke-width="0.75" stroke-miterlimit="10" stroke-dasharray="1.0357,1.0357" x1="11.904" y1="20.521" x2="11.904" y2="4.473"/>
			<line fill="none" stroke="#1D1D1B" stroke-width="0.75" stroke-miterlimit="10" x1="11.904" y1="3.954" x2="11.904" y2="3.454"/>
		</g>
	</g>
	<g>
		<g>
			
				<line fill="none" stroke="#1D1D1B" stroke-width="0.75" stroke-miterlimit="10" x1="11.904" y1="22.061" x2="11.479" y2="22.32"/>
			
				<line fill="none" stroke="#1D1D1B" stroke-width="0.75" stroke-miterlimit="10" stroke-dasharray="1.0301,1.0301" x1="10.604" y1="22.864" x2="2.279" y2="28.011"/>
			<line fill="none" stroke="#1D1D1B" stroke-width="0.75" stroke-miterlimit="10" x1="1.842" y1="28.282" x2="1.417" y2="28.546"/>
		</g>
	</g>
	<g>
		<g>
			
				<line fill="none" stroke="#1D1D1B" stroke-width="0.75" stroke-miterlimit="10" x1="30.583" y1="22.253" x2="30.285" y2="22.652"/>
			
				<line fill="none" stroke="#1D1D1B" stroke-width="0.75" stroke-miterlimit="10" stroke-dasharray="0.9763,0.9763" x1="29.704" y1="23.438" x2="26.506" y2="27.751"/>
			
				<line fill="none" stroke="#1D1D1B" stroke-width="0.75" stroke-miterlimit="10" x1="26.215" y1="28.145" x2="25.917" y2="28.546"/>
		</g>
	</g>
	<g>
		<line fill="none" stroke="#000100" stroke-width="0.5" stroke-miterlimit="10" x1="15.979" y1="26.016" x2="20.343" y2="26.016"/>
		<ellipse fill="#000100" cx="18.755" cy="24.627" rx="0.595" ry="0.312"/>
		<ellipse fill="#000100" cx="17.494" cy="27.398" rx="0.595" ry="0.317"/>
	</g>
	<g>
		<g>
			<path fill="#000100" d="M20.273,15.754c-0.531,0-0.959-0.427-0.959-0.957c0-0.525,0.428-0.954,0.959-0.954
				c0.527,0,0.955,0.428,0.955,0.954C21.229,15.328,20.801,15.754,20.273,15.754z"/>
			<path fill="#000100" d="M20.273,6.811c-0.531,0-0.959-0.429-0.959-0.958c0-0.527,0.428-0.956,0.959-0.956
				c0.527,0,0.955,0.428,0.955,0.956C21.229,6.386,20.801,6.811,20.273,6.811z"/>
		</g>
		<g>
			<g>
				<g transform="matrix(4.16667,0,0,4.16667,322.642,430.61)">
					<path vector-effect="non-scaling-stroke" d="M-72.856-101.192l-0.047-0.071c-0.02-0.033-0.047-0.082-0.081-0.148
						c-0.035-0.066-0.09-0.163-0.09-0.163c-0.057-0.044-0.108-0.061-0.185-0.107c-0.049-0.028-0.133-0.039-0.174-0.053
						c-0.041-0.014-0.086-0.014-0.133,0l-0.024,0.008c-0.053,0.017-0.077,0.038-0.068,0.063c0.008,0.024,0.02,0.043,0.039,0.053
						c0.02,0.013,0.039,0.019,0.058,0.022c0.02,0.001,0.039,0.009,0.058,0.02c0.019,0.012,0.031,0.03,0.039,0.055
						c0.014,0.042,0.011,0.085-0.011,0.125c-0.022,0.041-0.053,0.067-0.094,0.08c-0.058,0.019-0.113,0.006-0.163-0.039
						c-0.05-0.046-0.088-0.104-0.11-0.179c-0.02-0.061-0.003-0.116,0.047-0.166c0.05-0.05,0.118-0.09,0.203-0.116
						c0.166-0.052,0.275,0.02,0.455,0.133c0.199,0.124,0.311,0.228,0.453,0.396l0.046,0.072l0.642,0.849
						c0.011,0.017,0.028,0.049,0.053,0.091c0.023,0.042,0.044,0.075,0.058,0.097c0.014,0.022,0.033,0.049,0.057,0.08
						c0.024,0.03,0.046,0.053,0.066,0.066c0.02,0.012,0.046,0.023,0.074,0.03c0.03,0.006,0.06,0.005,0.09-0.005l0.023-0.008
						c0.053-0.017,0.074-0.038,0.066-0.063c-0.006-0.023-0.021-0.042-0.039-0.053c-0.019-0.012-0.038-0.019-0.058-0.022
						c-0.021-0.002-0.041-0.008-0.058-0.02c-0.019-0.013-0.032-0.03-0.039-0.053c-0.013-0.044-0.009-0.085,0.012-0.124
						c0.022-0.039,0.053-0.066,0.096-0.08c0.058-0.017,0.111-0.005,0.16,0.038c0.049,0.044,0.085,0.104,0.109,0.177
						c0.019,0.063,0.005,0.119-0.047,0.17c-0.05,0.049-0.118,0.088-0.203,0.114c-0.08,0.025-0.114-0.014-0.218-0.047
						c-0.104-0.033-0.118-0.124-0.215-0.196c-0.097-0.074-0.146-0.147-0.229-0.234c-0.083-0.085-0.152-0.158-0.212-0.242
						L-72.856-101.192"/>
				</g>
				<circle cx="24.714" cy="12.76" r="1.221"/>
				<circle cx="15.94" cy="8.071" r="1.219"/>
			</g>
			<g>
				<g transform="matrix(4.16667,0,0,4.16667,322.642,430.61)">
					<path vector-effect="non-scaling-stroke" d="M-73.028-100.644l0.436-0.524c0.068-0.08,0.146-0.16,0.238-0.238
						c0.093-0.08,0.192-0.152,0.298-0.218c0.105-0.066,0.212-0.11,0.32-0.135c0.108-0.023,0.204-0.019,0.284,0.014
						c0.083,0.035,0.149,0.08,0.196,0.136c0.047,0.055,0.058,0.115,0.03,0.178c-0.03,0.074-0.182-0.135-0.173-0.159
						c0.011-0.025-0.009-0.049-0.061-0.071l-0.025-0.011c-0.03-0.012-0.06-0.017-0.09-0.012c-0.03,0.005-0.056,0.011-0.078,0.023
						c-0.022,0.011-0.047,0.031-0.075,0.061c-0.027,0.03-0.047,0.055-0.064,0.077c-0.015,0.022-0.039,0.053-0.068,0.094
						c-0.029,0.041-0.051,0.071-0.063,0.088l-0.66,0.883l-0.054,0.069c-0.13,0.162-0.296,0.282-0.5,0.362
						c-0.202,0.08-0.388,0.085-0.552,0.017c-0.083-0.036-0.149-0.081-0.195-0.138c-0.047-0.057-0.058-0.115-0.033-0.176
						c0.031-0.074,0.183,0.135,0.173,0.158c-0.01,0.025,0.011,0.049,0.064,0.071l0.022,0.009c0.047,0.02,0.094,0.024,0.136,0.013
						c0.044-0.011,0.086-0.038,0.127-0.08c0.041-0.042,0.075-0.085,0.105-0.126c0.03-0.041,0.064-0.094,0.107-0.159
						c0.042-0.063,0.074-0.111,0.098-0.143L-73.028-100.644"/>
				</g>
			</g>
		</g>
	</g>
</g>
</svg>
