<?xml version="1.0" encoding="utf-8"?>
<!-- Generator: Adobe Illustrator 16.0.0, SVG Export Plug-In . SVG Version: 6.00 Build 0)  -->
<!DOCTYPE svg PUBLIC "-//W3C//DTD SVG 1.1//EN" "http://www.w3.org/Graphics/SVG/1.1/DTD/svg11.dtd">
<svg version="1.1" id="Calque_1" xmlns="http://www.w3.org/2000/svg" xmlns:xlink="http://www.w3.org/1999/xlink" x="0px" y="0px"
	 width="32px" height="32px" viewBox="0 0 32 32" enable-background="new 0 0 32 32" xml:space="preserve">
<g>
	<g>
		<path fill="none" stroke="#1D1D1B" stroke-width="1.5" d="M9.861,6.798c0.684-0.823,1.364-1.646,2.091-1.639
			c1.452,0.015,2.663,3.348,4.114,3.363c1.452,0.015,2.634-2.653,4.086-2.638c1.451,0.015,2.673,1.86,4.125,1.875
			c0.726,0.007,1.495,0.034,2.179-0.79"/>
		<g>
			<line fill="none" stroke="#1A171B" stroke-width="1.5" stroke-miterlimit="10" x1="26.456" y1="5.16" x2="26.456" y2="13.008"/>
		</g>
	</g>
	<g>
		<g>
			<g>
				<polyline fill="none" stroke="#1A171B" stroke-width="1.25" stroke-miterlimit="10" points="15.429,20.094 24.8,20.094 
					20.345,16.742 				"/>
				<g>
					<g>
						
							<line fill="none" stroke="#1A171B" stroke-width="1.25" stroke-miterlimit="10" x1="5.042" y1="20.094" x2="6.042" y2="20.094"/>
						
							<line fill="none" stroke="#1A171B" stroke-width="1.25" stroke-miterlimit="10" stroke-dasharray="1.6771,1.6771" x1="7.72" y1="20.094" x2="13.589" y2="20.094"/>
						
							<line fill="none" stroke="#1A171B" stroke-width="1.25" stroke-miterlimit="10" x1="14.429" y1="20.094" x2="15.429" y2="20.094"/>
					</g>
				</g>
			</g>
		</g>
		<line fill="none" stroke="#1A171B" stroke-width="1.5" stroke-miterlimit="10" x1="26.456" y1="13.008" x2="26.456" y2="27.18"/>
	</g>
</g>
</svg>
