<?xml version="1.0" encoding="utf-8"?>
<!-- Generator: Adobe Illustrator 16.0.0, SVG Export Plug-In . SVG Version: 6.00 Build 0)  -->
<!DOCTYPE svg PUBLIC "-//W3C//DTD SVG 1.1//EN" "http://www.w3.org/Graphics/SVG/1.1/DTD/svg11.dtd">
<svg version="1.1" id="Calque_1" xmlns="http://www.w3.org/2000/svg" xmlns:xlink="http://www.w3.org/1999/xlink" x="0px" y="0px"
	 width="32px" height="32px" viewBox="0 0 32 32" enable-background="new 0 0 32 32" xml:space="preserve">
<g>
	<g>
		<g>
			<path fill="none" stroke="#000100" stroke-miterlimit="10" d="M29.5,20.488c0,0-0.453-0.362-1.205-0.89"/>
			<path fill="none" stroke="#000100" stroke-miterlimit="10" stroke-dasharray="2.9299,2.9299" d="M25.827,18.02
				c-2.093-1.213-4.743-2.417-7.017-2.417c-5.042-0.001-8.438,3.801-10.07,4.248c-3.967,1.087-5.413-2.578-5.939-5.393"/>
			<path fill="none" stroke="#000100" stroke-miterlimit="10" d="M2.592,13.005C2.5,12.116,2.5,11.51,2.5,11.51"/>
		</g>
	</g>
	<path fill="none" stroke="#000100" stroke-width="2" stroke-miterlimit="10" d="M9.982,19.203
		c-0.489,0.317-0.903,0.555-1.242,0.647C2.5,21.561,2.5,11.511,2.5,11.511"/>
	<path fill="none" stroke="#000100" stroke-width="2" stroke-miterlimit="10" d="M29.5,20.489c0,0-3.295-2.634-6.859-4.034"/>
	<path fill="none" stroke="#000100" stroke-width="2" stroke-miterlimit="10" d="M27.891,15.432l1.609,5.057
		c0,0-2.816-2.251-6.059-3.697"/>
	<g>
		<path fill="none" stroke="#000100" stroke-width="2" stroke-miterlimit="10" d="M8.741,19.85C2.5,21.56,2.5,11.51,2.5,11.51
			l3.121,3.708"/>
	</g>
</g>
</svg>
