<?xml version="1.0" encoding="utf-8"?>
<!-- Generator: Adobe Illustrator 16.0.0, SVG Export Plug-In . SVG Version: 6.00 Build 0)  -->
<!DOCTYPE svg PUBLIC "-//W3C//DTD SVG 1.1//EN" "http://www.w3.org/Graphics/SVG/1.1/DTD/svg11.dtd">
<svg version="1.1" id="Calque_1" xmlns="http://www.w3.org/2000/svg" xmlns:xlink="http://www.w3.org/1999/xlink" x="0px" y="0px"
	 width="32px" height="32px" viewBox="0 0 32 32" enable-background="new 0 0 32 32" xml:space="preserve">
<g>
	<path fill="none" stroke="#1B171C" stroke-miterlimit="10" stroke-dasharray="3" d="M31,20.492c0-8.861-7.184-16.044-16.044-16.044
		c-7.088,0-12.835,5.747-12.835,12.835c0,5.672,4.597,10.269,10.269,10.269c4.536,0,8.214-3.678,8.214-8.215
		c0-3.629-2.942-6.572-6.572-6.572c-2.904,0-5.257,2.354-5.257,5.258"/>
	<path fill="none" stroke="#1B171C" stroke-width="2" stroke-miterlimit="10" d="M2.121,17.283c0,2.038,0.593,3.938,1.617,5.534
		c1.826,2.848,5.019,4.734,8.652,4.734c4.536,0,8.214-3.678,8.214-8.215c0-3.629-2.942-6.572-6.572-6.572
		c-2.904,0-5.257,2.354-5.257,5.258"/>
	<line fill="none" stroke="#1B171C" stroke-width="2" stroke-miterlimit="10" x1="8.805" y1="11.708" x2="8.817" y2="17.977"/>
	<line fill="none" stroke="#1B171C" stroke-width="2" stroke-miterlimit="10" x1="1" y1="23.242" x2="2.121" y2="17.074"/>
</g>
</svg>
