<?xml version="1.0" encoding="utf-8"?>
<!-- Generator: Adobe Illustrator 16.0.0, SVG Export Plug-In . SVG Version: 6.00 Build 0)  -->
<!DOCTYPE svg PUBLIC "-//W3C//DTD SVG 1.1//EN" "http://www.w3.org/Graphics/SVG/1.1/DTD/svg11.dtd">
<svg version="1.1" id="Calque_1" xmlns="http://www.w3.org/2000/svg" xmlns:xlink="http://www.w3.org/1999/xlink" x="0px" y="0px"
	 width="32px" height="32px" viewBox="0 0 32 32" enable-background="new 0 0 32 32" xml:space="preserve">
<g>
	<path fill="none" stroke="#1B171C" stroke-miterlimit="10" stroke-dasharray="3" d="M15.443,4.279
		c3.266,1.983,5.57,6.783,5.57,12.39c0,6.641-3.146,12.024-7.022,12.024c-3.877,0-7.021-5.384-7.021-12.024
		c0-7.379,3.988-13.362,8.912-13.362c4.922,0,8.912,5.983,8.912,13.362c0,6.641-3.144,12.024-7.021,12.024
		c-3.881,0-7.022-5.384-7.022-12.024c0-1.742,0.223-3.406,0.626-4.931c1.309-4.939,4.523-8.431,8.283-8.431
		c4.924,0,8.913,5.983,8.913,13.362"/>
	<path fill="none" stroke="#1B171C" stroke-miterlimit="10" stroke-dasharray="3" d="M3.186,16.669
		c0-7.379,3.99-13.362,8.913-13.362"/>
	<path fill="none" stroke="#1B171C" stroke-width="2" stroke-miterlimit="10" d="M11.376,11.738
		c1.309-4.939,4.523-8.431,8.283-8.431"/>
	<path fill="none" stroke="#1B171C" stroke-width="2" stroke-miterlimit="10" d="M19.659,3.307c4.924,0,8.913,5.983,8.913,13.362
		L31,12.627"/>
	<path fill="none" stroke="#1B171C" stroke-miterlimit="10" d="M15.881,3.307"/>
	<path fill="none" stroke="#1B171C" stroke-width="2" stroke-miterlimit="10" d="M1,11.453l2.186,5.216
		c0-7.379,3.99-13.362,8.913-13.362"/>
</g>
</svg>
