<?xml version="1.0" encoding="utf-8"?>
<!-- Generator: Adobe Illustrator 16.0.4, SVG Export Plug-In . SVG Version: 6.00 Build 0)  -->
<!DOCTYPE svg PUBLIC "-//W3C//DTD SVG 1.1//EN" "http://www.w3.org/Graphics/SVG/1.1/DTD/svg11.dtd">
<svg version="1.1" id="Calque_1" xmlns="http://www.w3.org/2000/svg" xmlns:xlink="http://www.w3.org/1999/xlink" x="0px" y="0px"
	 width="32px" height="32px" viewBox="0 0 32 32" enable-background="new 0 0 32 32" xml:space="preserve">
<g>
	<g>
		<g>
			<g>
				
					<line fill="none" stroke="#1D1D1B" stroke-width="0.75" stroke-miterlimit="10" x1="30.512" y1="1.292" x2="30.512" y2="1.792"/>
				
					<line fill="none" stroke="#1D1D1B" stroke-width="0.75" stroke-miterlimit="10" stroke-dasharray="1.0356,1.0356" x1="30.512" y1="2.828" x2="30.512" y2="18.879"/>
				<polyline fill="none" stroke="#1D1D1B" stroke-width="0.75" stroke-miterlimit="10" points="30.512,19.398 30.512,19.898 
					30.012,19.898 				"/>
				
					<line fill="none" stroke="#1D1D1B" stroke-width="0.75" stroke-miterlimit="10" stroke-dasharray="1.0357,1.0357" x1="28.975" y1="19.898" x2="12.921" y2="19.898"/>
				<polyline fill="none" stroke="#1D1D1B" stroke-width="0.75" stroke-miterlimit="10" points="12.402,19.898 11.902,19.898 
					11.902,19.398 				"/>
				
					<line fill="none" stroke="#1D1D1B" stroke-width="0.75" stroke-miterlimit="10" stroke-dasharray="1.0356,1.0356" x1="11.902" y1="18.361" x2="11.902" y2="2.31"/>
				
					<line fill="none" stroke="#1D1D1B" stroke-width="0.75" stroke-miterlimit="10" x1="11.902" y1="1.792" x2="11.902" y2="1.292"/>
			</g>
		</g>
		<g>
			<g>
				
					<line fill="none" stroke="#1D1D1B" stroke-width="0.75" stroke-miterlimit="10" x1="11.902" y1="19.898" x2="11.479" y2="20.16"/>
				
					<line fill="none" stroke="#1D1D1B" stroke-width="0.75" stroke-miterlimit="10" stroke-dasharray="1.03,1.03" x1="10.602" y1="20.701" x2="2.279" y2="25.85"/>
				
					<line fill="none" stroke="#1D1D1B" stroke-width="0.75" stroke-miterlimit="10" x1="1.842" y1="26.121" x2="1.417" y2="26.383"/>
			</g>
		</g>
		<g>
			<g>
				
					<line fill="none" stroke="#1D1D1B" stroke-width="0.75" stroke-miterlimit="10" x1="30.583" y1="20.09" x2="30.285" y2="20.492"/>
				
					<line fill="none" stroke="#1D1D1B" stroke-width="0.75" stroke-miterlimit="10" stroke-dasharray="0.9763,0.9763" x1="29.704" y1="21.275" x2="26.506" y2="25.59"/>
				
					<line fill="none" stroke="#1D1D1B" stroke-width="0.75" stroke-miterlimit="10" x1="26.215" y1="25.982" x2="25.917" y2="26.383"/>
			</g>
		</g>
		<polygon fill="#000100" points="25.625,9.082 28.032,5.998 26.021,5.998 24.614,7.797 23.212,6 21.204,6 23.598,9.095 
			21.074,12.376 23.068,12.376 24.614,10.376 26.178,12.376 28.176,12.376 		"/>
		<line fill="none" stroke="#000100" stroke-width="0.5" stroke-miterlimit="10" x1="21.208" y1="23.143" x2="23.96" y2="23.143"/>
	</g>
	<polyline fill="none" stroke="#1D1D1B" stroke-width="1.5" stroke-miterlimit="10" points="11.5,30.709 16,27.496 20.5,30.709 	"/>
</g>
</svg>
