<?xml version="1.0" encoding="utf-8"?>
<!-- Generator: Adobe Illustrator 16.0.0, SVG Export Plug-In . SVG Version: 6.00 Build 0)  -->
<!DOCTYPE svg PUBLIC "-//W3C//DTD SVG 1.1//EN" "http://www.w3.org/Graphics/SVG/1.1/DTD/svg11.dtd">
<svg version="1.1" id="Calque_1" xmlns="http://www.w3.org/2000/svg" xmlns:xlink="http://www.w3.org/1999/xlink" x="0px" y="0px"
	 width="32px" height="32px" viewBox="0 0 32 32" enable-background="new 0 0 32 32" xml:space="preserve">
<g>
	<g>
		<path fill="none" stroke="#000100" stroke-dasharray="3.0232,3.0232" d="M29.96,21.491c-0.756,1.92-2.528,3.051-4.402,3.238
			s-3.542-0.525-4.805-1.488c-1.266-0.963-2.201-2.221-2.917-3.445s-1.29-2.545-1.834-3.797c-0.546-1.25-1.118-2.568-1.836-3.795
			c-0.717-1.227-1.647-2.482-2.916-3.445C9.982,7.794,8.303,7.084,6.444,7.271c-1.856,0.185-3.646,1.316-4.402,3.238
			s-0.228,3.957,1.017,5.371c1.244,1.415,2.949,2.028,4.532,2.184c1.582,0.158,3.122-0.127,4.48-0.535s2.679-0.984,3.931-1.53
			c1.249-0.545,2.568-1.119,3.928-1.527c1.361-0.41,2.897-0.693,4.482-0.535c1.584,0.156,3.299,0.781,4.531,2.184
			C30.178,17.521,30.716,19.567,29.96,21.491z"/>
	</g>
	<path fill="none" stroke="#000100" stroke-width="2" d="M2.042,10.477c-0.756,1.924-0.228,3.957,1.017,5.373
		c1.244,1.415,2.949,2.028,4.532,2.184c1.582,0.158,3.122-0.127,4.48-0.535s2.679-0.986,3.931-1.53
		c1.249-0.545,2.568-1.121,3.928-1.529c1.361-0.408,2.897-0.693,4.482-0.535c1.584,0.158,3.299,0.783,4.531,2.186"/>
	<line fill="none" stroke="#1B171C" stroke-width="2" stroke-miterlimit="10" x1="26.116" y1="11.079" x2="28.732" y2="16"/>
</g>
</svg>
