<?xml version="1.0" encoding="utf-8"?>
<!-- Generator: Adobe Illustrator 16.0.0, SVG Export Plug-In . SVG Version: 6.00 Build 0)  -->
<!DOCTYPE svg PUBLIC "-//W3C//DTD SVG 1.1//EN" "http://www.w3.org/Graphics/SVG/1.1/DTD/svg11.dtd">
<svg version="1.1" id="Calque_1" xmlns="http://www.w3.org/2000/svg" xmlns:xlink="http://www.w3.org/1999/xlink" x="0px" y="0px"
	 width="32px" height="32px" viewBox="0 0 32 32" enable-background="new 0 0 32 32" xml:space="preserve">
<g>
	<path fill="none" stroke="#1B171C" stroke-miterlimit="10" stroke-dasharray="3" d="M1,16.721C1,8.763,5.304,2.31,10.614,2.31
		s9.614,6.453,9.614,14.411c0,7.163-3.392,12.97-7.574,12.97s-7.573-5.807-7.573-12.97c0-7.958,4.301-14.411,9.612-14.411
		c5.309,0,9.612,6.453,9.612,14.411c0,7.163-3.391,12.97-7.573,12.97c-4.186,0-7.573-5.807-7.573-12.97
		c0-1.877,0.24-3.673,0.676-5.318c1.412-5.327,4.879-9.093,8.935-9.093c5.31,0,9.612,6.453,9.612,14.411"/>
	<path fill="none" stroke="#1B171C" stroke-width="2" stroke-miterlimit="10" d="M9.834,11.402c1.412-5.327,4.879-9.093,8.935-9.093
		"/>
	<path fill="none" stroke="#1B171C" stroke-width="2" stroke-miterlimit="10" d="M18.769,2.31c5.31,0,9.612,6.453,9.612,14.411
		L31,12.362"/>
</g>
</svg>
