<?xml version="1.0" encoding="utf-8"?>
<!-- Generator: Adobe Illustrator 16.0.0, SVG Export Plug-In . SVG Version: 6.00 Build 0)  -->
<!DOCTYPE svg PUBLIC "-//W3C//DTD SVG 1.1//EN" "http://www.w3.org/Graphics/SVG/1.1/DTD/svg11.dtd">
<svg version="1.1" id="Calque_1" xmlns="http://www.w3.org/2000/svg" xmlns:xlink="http://www.w3.org/1999/xlink" x="0px" y="0px"
	 width="32px" height="32px" viewBox="0 0 32 32" enable-background="new 0 0 32 32" xml:space="preserve">
<g>
	<g>
		<rect x="4.5" y="4.5" fill="none" stroke="#000100" stroke-miterlimit="10" width="23" height="23"/>
	</g>
	<g>
		<g>
			<path fill="#000100" d="M13.657,18.979c-0.551,0-0.995-0.443-0.995-0.992c0-0.547,0.444-0.99,0.995-0.99
				c0.547,0,0.99,0.443,0.99,0.99C14.647,18.535,14.204,18.979,13.657,18.979z"/>
			<path fill="#000100" d="M13.657,9.703c-0.551,0-0.995-0.445-0.995-0.993c0-0.546,0.444-0.993,0.995-0.993
				c0.547,0,0.99,0.447,0.99,0.993C14.647,9.261,14.204,9.703,13.657,9.703z"/>
		</g>
		<g>
			<g>
				<g transform="matrix(4.16667,0,0,4.16667,322.642,430.61)">
					<path vector-effect="non-scaling-stroke" d="M-74.453-100.478l-0.049-0.074c-0.021-0.035-0.049-0.085-0.085-0.153
						c-0.036-0.068-0.093-0.169-0.093-0.169c-0.058-0.045-0.113-0.063-0.193-0.11c-0.051-0.03-0.138-0.041-0.181-0.056
						c-0.043-0.015-0.089-0.015-0.139,0l-0.023,0.008c-0.056,0.018-0.079,0.039-0.071,0.065c0.008,0.025,0.022,0.044,0.041,0.055
						c0.021,0.013,0.041,0.02,0.061,0.022c0.021,0.002,0.04,0.009,0.06,0.022c0.019,0.012,0.032,0.031,0.04,0.056
						c0.014,0.045,0.011,0.088-0.011,0.13c-0.022,0.041-0.055,0.069-0.098,0.083c-0.06,0.019-0.117,0.006-0.169-0.04
						c-0.052-0.046-0.09-0.107-0.114-0.185c-0.02-0.064-0.004-0.121,0.049-0.173c0.053-0.052,0.123-0.093,0.211-0.121
						c0.172-0.054,0.284,0.021,0.472,0.139c0.207,0.129,0.322,0.235,0.47,0.411l0.047,0.075l0.666,0.88
						c0.011,0.019,0.029,0.05,0.055,0.094c0.026,0.044,0.045,0.078,0.06,0.101c0.014,0.023,0.034,0.051,0.059,0.084
						c0.024,0.032,0.048,0.055,0.069,0.069c0.021,0.014,0.047,0.024,0.077,0.03c0.03,0.007,0.061,0.005,0.092-0.004l0.025-0.008
						c0.055-0.017,0.077-0.039,0.068-0.065c-0.007-0.025-0.021-0.044-0.04-0.056c-0.02-0.013-0.039-0.02-0.06-0.022
						c-0.021-0.002-0.042-0.008-0.061-0.021c-0.019-0.013-0.033-0.031-0.041-0.056c-0.014-0.045-0.009-0.088,0.013-0.129
						s0.056-0.069,0.099-0.083c0.06-0.019,0.116-0.006,0.167,0.04c0.051,0.045,0.089,0.107,0.113,0.184
						c0.02,0.065,0.004,0.124-0.049,0.176c-0.052,0.051-0.123,0.091-0.211,0.118c-0.083,0.027-0.118-0.014-0.226-0.048
						c-0.107-0.034-0.122-0.128-0.223-0.203c-0.101-0.076-0.151-0.153-0.237-0.242c-0.086-0.089-0.159-0.164-0.219-0.251
						L-74.453-100.478"/>
				</g>
				<circle cx="18.264" cy="15.874" r="1.265"/>
				<circle cx="9.165" cy="11.01" r="1.265"/>
			</g>
			<g>
				<g transform="matrix(4.16667,0,0,4.16667,322.642,430.61)">
					<path vector-effect="non-scaling-stroke" d="M-74.633-99.911l0.452-0.544c0.07-0.082,0.152-0.165,0.248-0.248
						c0.096-0.083,0.199-0.158,0.309-0.225c0.109-0.068,0.22-0.114,0.332-0.139c0.113-0.024,0.211-0.02,0.294,0.015
						c0.086,0.037,0.155,0.084,0.204,0.141c0.049,0.058,0.06,0.119,0.032,0.183c-0.031,0.077-0.19-0.14-0.18-0.164
						c0.011-0.026-0.01-0.051-0.064-0.073l-0.026-0.011c-0.031-0.013-0.062-0.017-0.093-0.013c-0.031,0.004-0.058,0.012-0.081,0.024
						c-0.023,0.011-0.049,0.033-0.078,0.064c-0.028,0.031-0.049,0.057-0.067,0.08c-0.017,0.022-0.04,0.055-0.07,0.097
						c-0.031,0.042-0.053,0.073-0.066,0.091l-0.686,0.917l-0.055,0.072c-0.135,0.167-0.308,0.292-0.519,0.375
						c-0.21,0.083-0.401,0.088-0.572,0.017c-0.086-0.037-0.154-0.084-0.203-0.143c-0.049-0.059-0.061-0.119-0.034-0.182
						c0.032-0.077,0.19,0.141,0.179,0.165c-0.01,0.026,0.012,0.051,0.067,0.074l0.023,0.009c0.049,0.021,0.097,0.025,0.142,0.014
						c0.045-0.011,0.089-0.039,0.131-0.083c0.042-0.044,0.078-0.087,0.109-0.131c0.03-0.043,0.068-0.098,0.11-0.164
						c0.044-0.066,0.077-0.115,0.102-0.148L-74.633-99.911"/>
				</g>
			</g>
		</g>
	</g>
</g>
</svg>
