<?xml version="1.0" encoding="utf-8"?>
<!-- Generator: Adobe Illustrator 16.0.0, SVG Export Plug-In . SVG Version: 6.00 Build 0)  -->
<!DOCTYPE svg PUBLIC "-//W3C//DTD SVG 1.1//EN" "http://www.w3.org/Graphics/SVG/1.1/DTD/svg11.dtd">
<svg version="1.1" id="Calque_1" xmlns="http://www.w3.org/2000/svg" xmlns:xlink="http://www.w3.org/1999/xlink" x="0px" y="0px"
	 width="32px" height="32px" viewBox="0 0 32 32" enable-background="new 0 0 32 32" xml:space="preserve">
<g>
	<g>
		<g>
			<polyline fill="none" stroke="#1B171C" stroke-miterlimit="10" points="2.727,7.655 2.109,6.288 3.546,5.858 			"/>
			
				<line fill="none" stroke="#1B171C" stroke-miterlimit="10" stroke-dasharray="2.3404,2.3404" x1="5.788" y1="5.187" x2="13.635" y2="2.836"/>
			<polyline fill="none" stroke="#1B171C" stroke-miterlimit="10" points="14.756,2.5 16.193,2.07 17.282,3.102 			"/>
			
				<line fill="none" stroke="#1B171C" stroke-miterlimit="10" stroke-dasharray="3.1723,3.1723" x1="19.586" y1="5.282" x2="27.649" y2="12.916"/>
			<polyline fill="none" stroke="#1B171C" stroke-miterlimit="10" points="28.802,14.006 29.891,15.037 28.424,15.353 			"/>
			
				<line fill="none" stroke="#1B171C" stroke-miterlimit="10" stroke-dasharray="2.2212,2.2212" x1="26.253" y1="15.82" x2="22.995" y2="16.521"/>
			<polyline fill="none" stroke="#1B171C" stroke-miterlimit="10" points="21.91,16.755 20.443,17.07 19.677,18.359 			"/>
			
				<line fill="none" stroke="#1B171C" stroke-miterlimit="10" stroke-dasharray="2.3922,2.3922" x1="18.454" y1="20.416" x2="14.175" y2="27.612"/>
			<polyline fill="none" stroke="#1B171C" stroke-miterlimit="10" points="13.563,28.641 12.797,29.93 12.179,28.562 			"/>
			
				<line fill="none" stroke="#1B171C" stroke-miterlimit="10" stroke-dasharray="3.2779,3.2779" x1="10.829" y1="25.576" x2="3.402" y2="9.148"/>
		</g>
	</g>
	<polyline fill="none" stroke="#1B171C" stroke-width="2" stroke-miterlimit="10" points="4.662,11.934 2.109,6.288 16.193,2.07 
		25.845,10.389 24.699,4.861 	"/>
</g>
</svg>
