<?xml version="1.0" encoding="utf-8"?>
<!-- Generator: Adobe Illustrator 16.0.0, SVG Export Plug-In . SVG Version: 6.00 Build 0)  -->
<!DOCTYPE svg PUBLIC "-//W3C//DTD SVG 1.1//EN" "http://www.w3.org/Graphics/SVG/1.1/DTD/svg11.dtd">
<svg version="1.1" id="Calque_1" xmlns="http://www.w3.org/2000/svg" xmlns:xlink="http://www.w3.org/1999/xlink" x="0px" y="0px"
	 width="32px" height="32px" viewBox="0 0 32 32" enable-background="new 0 0 32 32" xml:space="preserve">
<g>
	<rect x="4.5" y="4.5" fill="none" stroke="#000100" stroke-miterlimit="10" width="23" height="23"/>
	<g>
		<path fill="#000100" d="M13.264,11.142l2.263-2.896h-1.561l-1.044,1.332c-0.149,0.188-0.298,0.375-0.445,0.564l-1.478-1.896H9.438
			l2.248,2.904l-2.385,3.096h1.549l1.626-2.103l1.642,2.103h1.549L13.264,11.142z"/>
		<path fill="#000100" d="M16.47,11.6c0,0.39-0.314,0.704-0.701,0.704c-0.389,0-0.703-0.314-0.703-0.704
			c0-0.387,0.314-0.701,0.703-0.701C16.155,10.898,16.47,11.213,16.47,11.6z"/>
		<path fill="#000100" d="M9.901,11.6c0,0.39-0.312,0.704-0.703,0.704c-0.387,0-0.701-0.314-0.701-0.704
			c0-0.387,0.314-0.701,0.701-0.701C9.59,10.898,9.901,11.213,9.901,11.6z"/>
	</g>
	<g>
		<path fill="#000100" d="M22.072,22.233l2.263-2.896h-1.561l-1.044,1.331c-0.149,0.188-0.298,0.375-0.445,0.564l-1.478-1.896
			h-1.561l2.248,2.904l-2.385,3.096h1.549l1.626-2.103l1.642,2.103h1.549L22.072,22.233z"/>
		<path fill="#000100" d="M25.278,22.691c0,0.39-0.314,0.703-0.701,0.703c-0.389,0-0.703-0.313-0.703-0.703
			c0-0.387,0.314-0.701,0.703-0.701C24.964,21.99,25.278,22.305,25.278,22.691z"/>
		<path fill="#000100" d="M18.71,22.691c0,0.39-0.312,0.703-0.703,0.703c-0.387,0-0.701-0.313-0.701-0.703
			c0-0.387,0.314-0.701,0.701-0.701C18.398,21.99,18.71,22.305,18.71,22.691z"/>
	</g>
</g>
</svg>
