<?xml version="1.0" encoding="utf-8"?>
<!-- Generator: Adobe Illustrator 16.0.0, SVG Export Plug-In . SVG Version: 6.00 Build 0)  -->
<!DOCTYPE svg PUBLIC "-//W3C//DTD SVG 1.1//EN" "http://www.w3.org/Graphics/SVG/1.1/DTD/svg11.dtd">
<svg version="1.1" id="Calque_1" xmlns="http://www.w3.org/2000/svg" xmlns:xlink="http://www.w3.org/1999/xlink" x="0px" y="0px"
	 width="32px" height="32px" viewBox="0 0 32 32" enable-background="new 0 0 32 32" xml:space="preserve">
<g>
	<g>
		<g>
			<rect x="4.5" y="1.487" fill="none" stroke="#000100" stroke-miterlimit="10" width="23" height="23"/>
		</g>
		<polygon fill="#000100" points="23.188,19.619 25.224,17.02 23.528,17.02 22.339,18.533 21.158,17.02 19.468,17.02 21.483,19.625 
			19.354,22.393 21.034,22.393 22.339,20.705 23.655,22.393 25.34,22.393 		"/>
		<polygon fill="#000100" points="13.173,9.229 15.206,6.632 13.512,6.632 12.322,8.146 11.143,6.632 9.451,6.632 11.468,9.235 
			9.337,12.005 11.018,12.005 12.322,10.315 13.639,12.005 15.323,12.005 		"/>
	</g>
	<g>
		<polyline fill="none" stroke="#1D1D1B" stroke-width="1.5" stroke-miterlimit="10" points="11.5,30.513 16,27.299 20.5,30.513 		
			"/>
	</g>
</g>
</svg>
