<?xml version="1.0" encoding="utf-8"?>
<!-- Generator: Adobe Illustrator 16.0.4, SVG Export Plug-In . SVG Version: 6.00 Build 0)  -->
<!DOCTYPE svg PUBLIC "-//W3C//DTD SVG 1.1//EN" "http://www.w3.org/Graphics/SVG/1.1/DTD/svg11.dtd">
<svg version="1.1" id="Calque_1" xmlns="http://www.w3.org/2000/svg" xmlns:xlink="http://www.w3.org/1999/xlink" x="0px" y="0px"
	 width="32px" height="32px" viewBox="0 0 32 32" enable-background="new 0 0 32 32" xml:space="preserve">
<g>
	<g>
		<g>
			<line fill="none" stroke="#1D1D1B" stroke-width="0.75" stroke-miterlimit="10" x1="30.514" y1="3.454" x2="30.514" y2="3.954"/>
			
				<line fill="none" stroke="#1D1D1B" stroke-width="0.75" stroke-miterlimit="10" stroke-dasharray="1.0356,1.0356" x1="30.514" y1="4.99" x2="30.514" y2="21.042"/>
			<polyline fill="none" stroke="#1D1D1B" stroke-width="0.75" stroke-miterlimit="10" points="30.514,21.561 30.514,22.061 
				30.014,22.061 			"/>
			
				<line fill="none" stroke="#1D1D1B" stroke-width="0.75" stroke-miterlimit="10" stroke-dasharray="1.0357,1.0357" x1="28.977" y1="22.061" x2="12.921" y2="22.061"/>
			<polyline fill="none" stroke="#1D1D1B" stroke-width="0.75" stroke-miterlimit="10" points="12.403,22.061 11.903,22.061 
				11.903,21.561 			"/>
			
				<line fill="none" stroke="#1D1D1B" stroke-width="0.75" stroke-miterlimit="10" stroke-dasharray="1.0356,1.0356" x1="11.903" y1="20.523" x2="11.903" y2="4.473"/>
			<line fill="none" stroke="#1D1D1B" stroke-width="0.75" stroke-miterlimit="10" x1="11.903" y1="3.954" x2="11.903" y2="3.454"/>
		</g>
	</g>
	<g>
		<g>
			
				<line fill="none" stroke="#1D1D1B" stroke-width="0.75" stroke-miterlimit="10" x1="11.903" y1="22.061" x2="11.479" y2="22.322"/>
			
				<line fill="none" stroke="#1D1D1B" stroke-width="0.75" stroke-miterlimit="10" stroke-dasharray="1.03,1.03" x1="10.603" y1="22.863" x2="2.28" y2="28.012"/>
			<line fill="none" stroke="#1D1D1B" stroke-width="0.75" stroke-miterlimit="10" x1="1.843" y1="28.283" x2="1.417" y2="28.546"/>
		</g>
	</g>
	<g>
		<g>
			
				<line fill="none" stroke="#1D1D1B" stroke-width="0.75" stroke-miterlimit="10" x1="30.583" y1="22.253" x2="30.286" y2="22.654"/>
			
				<line fill="none" stroke="#1D1D1B" stroke-width="0.75" stroke-miterlimit="10" stroke-dasharray="0.9763,0.9763" x1="29.704" y1="23.438" x2="26.507" y2="27.752"/>
			
				<line fill="none" stroke="#1D1D1B" stroke-width="0.75" stroke-miterlimit="10" x1="26.216" y1="28.145" x2="25.917" y2="28.546"/>
		</g>
	</g>
	<line fill="none" stroke="#000100" stroke-width="0.5" stroke-miterlimit="10" x1="20.585" y1="25.305" x2="24.585" y2="25.305"/>
	<g>
		<g>
			<g transform="matrix(4.16667,0,0,4.16667,322.642,430.61)">
				<path vector-effect="non-scaling-stroke" d="M-72.04-100.396l-0.04-0.06c-0.016-0.028-0.041-0.07-0.071-0.127
					c-0.03-0.056-0.076-0.139-0.076-0.139c-0.046-0.038-0.092-0.052-0.159-0.09c-0.042-0.024-0.114-0.034-0.148-0.046
					c-0.037-0.012-0.075-0.012-0.115,0l-0.018,0.006c-0.046,0.014-0.065,0.032-0.058,0.054c0.006,0.02,0.018,0.036,0.034,0.046
					c0.016,0.01,0.034,0.016,0.05,0.018c0.017,0.002,0.033,0.008,0.049,0.018c0.016,0.01,0.028,0.026,0.034,0.046
					c0.012,0.036,0.008,0.072-0.01,0.107c-0.018,0.034-0.044,0.056-0.08,0.068c-0.05,0.016-0.096,0.004-0.139-0.034
					c-0.042-0.038-0.075-0.088-0.095-0.153c-0.016-0.052-0.002-0.101,0.04-0.143c0.044-0.044,0.101-0.076,0.173-0.099
					c0.142-0.044,0.235,0.018,0.39,0.114c0.171,0.107,0.265,0.195,0.388,0.338l0.039,0.062l0.548,0.726
					c0.01,0.016,0.025,0.042,0.044,0.076c0.023,0.036,0.039,0.064,0.05,0.085c0.012,0.018,0.028,0.042,0.049,0.068
					c0.02,0.026,0.04,0.046,0.058,0.056c0.016,0.012,0.038,0.02,0.063,0.026c0.026,0.006,0.05,0.004,0.076-0.004l0.02-0.006
					c0.044-0.014,0.062-0.032,0.057-0.054c-0.006-0.02-0.018-0.036-0.032-0.046c-0.016-0.01-0.033-0.016-0.05-0.018
					c-0.019-0.002-0.034-0.008-0.05-0.018c-0.016-0.01-0.028-0.026-0.034-0.046c-0.012-0.036-0.008-0.072,0.01-0.106
					c0.018-0.034,0.046-0.056,0.083-0.068c0.048-0.016,0.094-0.004,0.137,0.032c0.042,0.038,0.073,0.089,0.092,0.151
					c0.016,0.054,0.004,0.103-0.04,0.145c-0.042,0.042-0.1,0.074-0.173,0.099c-0.068,0.022-0.098-0.012-0.187-0.04
					c-0.088-0.028-0.1-0.104-0.183-0.167c-0.083-0.062-0.125-0.127-0.195-0.199c-0.07-0.072-0.131-0.135-0.181-0.207L-72.04-100.396
					"/>
			</g>
			<circle cx="27.302" cy="15.525" r="1.043"/>
			<circle cx="19.795" cy="11.513" r="1.044"/>
		</g>
		<g>
			<g transform="matrix(4.16667,0,0,4.16667,322.642,430.61)">
				<path vector-effect="non-scaling-stroke" d="M-72.186-99.928l0.371-0.448c0.059-0.068,0.125-0.137,0.206-0.203
					c0.08-0.068,0.165-0.131,0.255-0.187c0.09-0.056,0.181-0.095,0.273-0.115c0.092-0.02,0.175-0.016,0.243,0.012
					c0.072,0.03,0.129,0.068,0.169,0.117c0.041,0.048,0.049,0.098,0.026,0.151c-0.026,0.062-0.156-0.117-0.149-0.135
					c0.01-0.022-0.007-0.042-0.052-0.06l-0.023-0.01c-0.026-0.01-0.05-0.014-0.076-0.01c-0.026,0.004-0.048,0.01-0.066,0.02
					c-0.02,0.01-0.041,0.028-0.065,0.052c-0.022,0.024-0.04,0.048-0.054,0.066s-0.032,0.046-0.058,0.08
					c-0.026,0.034-0.044,0.06-0.054,0.074l-0.565,0.756l-0.044,0.06c-0.11,0.139-0.255,0.242-0.428,0.31
					c-0.173,0.068-0.332,0.072-0.473,0.014c-0.073-0.03-0.127-0.07-0.167-0.116c-0.04-0.048-0.05-0.099-0.028-0.151
					c0.026-0.065,0.157,0.116,0.146,0.135c-0.007,0.022,0.01,0.042,0.056,0.06l0.018,0.008c0.042,0.016,0.08,0.02,0.117,0.012
					c0.038-0.01,0.075-0.032,0.109-0.068c0.034-0.036,0.064-0.072,0.09-0.108c0.026-0.036,0.056-0.081,0.09-0.135
					c0.036-0.054,0.062-0.094,0.085-0.123L-72.186-99.928"/>
			</g>
		</g>
	</g>
</g>
</svg>
