<?xml version="1.0" encoding="utf-8"?>
<!-- Generator: Adobe Illustrator 16.0.0, SVG Export Plug-In . SVG Version: 6.00 Build 0)  -->
<!DOCTYPE svg PUBLIC "-//W3C//DTD SVG 1.1//EN" "http://www.w3.org/Graphics/SVG/1.1/DTD/svg11.dtd">
<svg version="1.1" id="Calque_1" xmlns="http://www.w3.org/2000/svg" xmlns:xlink="http://www.w3.org/1999/xlink" x="0px" y="0px"
	 width="32px" height="32px" viewBox="0 0 32 32" enable-background="new 0 0 32 32" xml:space="preserve">
<g>
	<g>
		<g>
			<polyline fill="none" stroke="#1B171C" stroke-miterlimit="10" points="2.812,7.655 2.194,6.288 3.631,5.858 			"/>
			
				<line fill="none" stroke="#1B171C" stroke-miterlimit="10" stroke-dasharray="2.3402,2.3402" x1="5.873" y1="5.187" x2="13.72" y2="2.836"/>
			<polyline fill="none" stroke="#1B171C" stroke-miterlimit="10" points="14.84,2.5 16.277,2.07 17.366,3.102 			"/>
			
				<line fill="none" stroke="#1B171C" stroke-miterlimit="10" stroke-dasharray="3.1723,3.1723" x1="19.67" y1="5.282" x2="27.733" y2="12.916"/>
			<polyline fill="none" stroke="#1B171C" stroke-miterlimit="10" points="28.886,14.006 29.975,15.037 28.508,15.353 			"/>
			
				<line fill="none" stroke="#1B171C" stroke-miterlimit="10" stroke-dasharray="2.2212,2.2212" x1="26.337" y1="15.82" x2="23.079" y2="16.521"/>
			<polyline fill="none" stroke="#1B171C" stroke-miterlimit="10" points="21.994,16.755 20.527,17.07 19.761,18.359 			"/>
			
				<line fill="none" stroke="#1B171C" stroke-miterlimit="10" stroke-dasharray="2.3921,2.3921" x1="18.538" y1="20.416" x2="14.26" y2="27.612"/>
			<polyline fill="none" stroke="#1B171C" stroke-miterlimit="10" points="13.648,28.641 12.882,29.93 12.264,28.562 			"/>
			
				<line fill="none" stroke="#1B171C" stroke-miterlimit="10" stroke-dasharray="3.2779,3.2779" x1="10.914" y1="25.576" x2="3.487" y2="9.148"/>
		</g>
	</g>
	<polyline fill="none" stroke="#1B171C" stroke-width="2" stroke-miterlimit="10" points="2.025,15.605 6.952,18.347 2.194,6.288 
		16.277,2.07 25.929,10.389 24.783,4.861 	"/>
</g>
</svg>
