<?xml version="1.0" encoding="utf-8"?>
<!-- Generator: Adobe Illustrator 16.0.0, SVG Export Plug-In . SVG Version: 6.00 Build 0)  -->
<!DOCTYPE svg PUBLIC "-//W3C//DTD SVG 1.1//EN" "http://www.w3.org/Graphics/SVG/1.1/DTD/svg11.dtd">
<svg version="1.1" id="Calque_1" xmlns="http://www.w3.org/2000/svg" xmlns:xlink="http://www.w3.org/1999/xlink" x="0px" y="0px"
	 width="32px" height="32px" viewBox="0 0 32 32" enable-background="new 0 0 32 32" xml:space="preserve">
<g>
	<polyline fill="none" stroke="#1D1D1B" stroke-width="1.5" stroke-miterlimit="10" points="11.5,30.513 16,27.3 20.5,30.513 	"/>
	<g>
		<g>
			<rect x="4.5" y="1.487" fill="none" stroke="#000100" stroke-miterlimit="10" width="23" height="23"/>
		</g>
		<g>
			<g>
				<path fill="#000100" d="M13.657,15.968c-0.551,0-0.995-0.444-0.995-0.993c0-0.546,0.444-0.99,0.995-0.99
					c0.547,0,0.99,0.444,0.99,0.99C14.647,15.523,14.204,15.968,13.657,15.968z"/>
				<path fill="#000100" d="M13.657,6.69c-0.551,0-0.995-0.443-0.995-0.992c0-0.547,0.444-0.992,0.995-0.992
					c0.547,0,0.99,0.445,0.99,0.992C14.647,6.249,14.204,6.69,13.657,6.69z"/>
			</g>
			<g>
				<g>
					<g transform="matrix(4.16667,0,0,4.16667,322.642,430.61)">
						<path vector-effect="non-scaling-stroke" d="M-74.453-101.201l-0.049-0.074c-0.021-0.034-0.049-0.085-0.085-0.153
							c-0.036-0.068-0.093-0.169-0.093-0.169c-0.058-0.045-0.113-0.063-0.193-0.111c-0.051-0.03-0.138-0.04-0.181-0.056
							c-0.043-0.015-0.089-0.015-0.139,0.001l-0.023,0.007c-0.056,0.017-0.079,0.039-0.071,0.065
							c0.008,0.025,0.022,0.044,0.041,0.056c0.021,0.013,0.041,0.02,0.061,0.022c0.021,0.002,0.04,0.009,0.06,0.022
							c0.019,0.013,0.032,0.031,0.04,0.056c0.014,0.045,0.011,0.088-0.011,0.13c-0.022,0.042-0.055,0.069-0.098,0.083
							c-0.06,0.019-0.117,0.006-0.169-0.04c-0.052-0.045-0.09-0.107-0.114-0.185c-0.02-0.063-0.004-0.121,0.049-0.173
							c0.053-0.052,0.123-0.092,0.211-0.12c0.172-0.053,0.284,0.021,0.472,0.139c0.207,0.129,0.322,0.235,0.47,0.411l0.047,0.075
							l0.666,0.881c0.011,0.019,0.029,0.05,0.055,0.094c0.026,0.044,0.045,0.077,0.06,0.101c0.014,0.023,0.034,0.052,0.059,0.084
							c0.024,0.032,0.048,0.055,0.069,0.069c0.021,0.013,0.047,0.024,0.077,0.031c0.03,0.007,0.061,0.005,0.092-0.005l0.025-0.008
							c0.055-0.017,0.077-0.039,0.068-0.065c-0.007-0.025-0.021-0.044-0.04-0.056c-0.02-0.013-0.039-0.02-0.06-0.022
							c-0.021-0.002-0.042-0.009-0.061-0.021c-0.019-0.013-0.033-0.031-0.041-0.056c-0.014-0.045-0.009-0.088,0.013-0.129
							c0.022-0.041,0.056-0.069,0.099-0.083c0.06-0.019,0.116-0.006,0.167,0.04c0.051,0.045,0.089,0.107,0.113,0.184
							c0.02,0.065,0.004,0.124-0.049,0.176c-0.052,0.051-0.123,0.09-0.211,0.119c-0.083,0.026-0.118-0.014-0.226-0.048
							c-0.107-0.034-0.122-0.128-0.223-0.203c-0.101-0.076-0.151-0.154-0.237-0.242c-0.086-0.089-0.159-0.165-0.219-0.251
							L-74.453-101.201"/>
					</g>
					<circle cx="18.264" cy="12.862" r="1.265"/>
					<circle cx="9.165" cy="7.998" r="1.265"/>
				</g>
				<g>
					<g transform="matrix(4.16667,0,0,4.16667,322.642,430.61)">
						<path vector-effect="non-scaling-stroke" d="M-74.633-100.633l0.452-0.544c0.07-0.082,0.152-0.165,0.248-0.247
							c0.096-0.083,0.199-0.158,0.309-0.225c0.109-0.068,0.22-0.114,0.332-0.139c0.113-0.025,0.211-0.02,0.294,0.015
							c0.086,0.037,0.155,0.083,0.204,0.141c0.049,0.058,0.06,0.119,0.032,0.183c-0.031,0.077-0.19-0.14-0.18-0.165
							c0.011-0.026-0.01-0.051-0.064-0.073l-0.026-0.011c-0.031-0.012-0.062-0.017-0.093-0.013
							c-0.031,0.004-0.058,0.012-0.081,0.024c-0.023,0.012-0.049,0.033-0.078,0.064c-0.028,0.03-0.049,0.057-0.067,0.08
							c-0.017,0.022-0.04,0.055-0.07,0.097c-0.031,0.043-0.053,0.073-0.066,0.091l-0.686,0.917l-0.055,0.072
							c-0.135,0.167-0.308,0.292-0.519,0.375c-0.21,0.083-0.401,0.088-0.572,0.017c-0.086-0.037-0.154-0.084-0.203-0.143
							c-0.049-0.059-0.061-0.119-0.034-0.182c0.032-0.077,0.19,0.14,0.179,0.165c-0.01,0.026,0.012,0.051,0.067,0.074l0.023,0.009
							c0.049,0.021,0.097,0.025,0.142,0.014c0.045-0.011,0.089-0.039,0.131-0.083c0.042-0.044,0.078-0.088,0.109-0.131
							c0.03-0.043,0.068-0.098,0.11-0.164c0.044-0.065,0.077-0.115,0.102-0.148L-74.633-100.633"/>
					</g>
				</g>
			</g>
		</g>
	</g>
</g>
</svg>
