<?xml version="1.0" encoding="utf-8"?>
<!-- Generator: Adobe Illustrator 16.0.0, SVG Export Plug-In . SVG Version: 6.00 Build 0)  -->
<!DOCTYPE svg PUBLIC "-//W3C//DTD SVG 1.1//EN" "http://www.w3.org/Graphics/SVG/1.1/DTD/svg11.dtd">
<svg version="1.1" id="Calque_1" xmlns="http://www.w3.org/2000/svg" xmlns:xlink="http://www.w3.org/1999/xlink" x="0px" y="0px"
	 width="25px" height="25px" viewBox="0 0 25 25" enable-background="new 0 0 25 25" xml:space="preserve">
<g>
	<g>
		<path fill="#000100" d="M13.645,23.12l-0.039-0.373c2.365-0.252,4.506-1.274,6.188-2.955s2.703-3.819,2.955-6.188l0.375,0.041
			c-0.26,2.418-1.348,4.696-3.064,6.414C18.314,21.8,16.098,22.857,13.645,23.12z"/>
		<path fill="#000100" d="M13.65,20.075l-0.055-0.371c1.57-0.237,2.98-0.94,4.072-2.034c1.096-1.095,1.799-2.503,2.037-4.074
			l0.369,0.057c-0.25,1.65-0.99,3.133-2.141,4.283C16.783,19.085,15.305,19.825,13.65,20.075z"/>
		<path fill="#000100" d="M5.295,11.4l-0.371-0.055c0.25-1.649,0.99-3.129,2.142-4.28c1.152-1.151,2.631-1.892,4.281-2.142
			l0.055,0.371C9.834,5.532,8.426,6.236,7.333,7.33C6.237,8.426,5.534,9.833,5.295,11.4z"/>
		<path fill="#000100" d="M2.251,11.395l-0.374-0.039c0.265-2.453,1.324-4.668,3.064-6.411c1.744-1.742,3.961-2.801,6.412-3.064
			l0.041,0.373C9.029,2.507,6.891,3.529,5.208,5.209C3.528,6.89,2.505,9.028,2.251,11.395z"/>
		<path fill="#000100" d="M22.746,11.395c-0.254-2.365-1.273-4.503-2.955-6.186c-1.682-1.681-3.818-2.703-6.188-2.956l0.039-0.373
			c2.455,0.263,4.672,1.321,6.414,3.064c1.74,1.742,2.799,3.959,3.062,6.41L22.746,11.395z"/>
		<path fill="#000100" d="M19.703,11.4c-0.236-1.566-0.939-2.974-2.035-4.069c-1.094-1.094-2.502-1.798-4.07-2.035l0.055-0.371
			c1.65,0.25,3.131,0.99,4.283,2.142c1.148,1.151,1.891,2.632,2.141,4.279L19.703,11.4z"/>
		<path fill="#000100" d="M11.347,20.072c-1.649-0.248-3.13-0.987-4.281-2.139c-1.153-1.152-1.893-2.633-2.142-4.283l0.371-0.055
			c0.237,1.568,0.94,2.979,2.036,4.073c1.094,1.093,2.501,1.796,4.07,2.033L11.347,20.072z"/>
		<path fill="#000100" d="M11.353,23.119c-2.452-0.266-4.668-1.323-6.412-3.062c-1.742-1.742-2.801-3.959-3.064-6.412l0.374-0.041
			c0.253,2.367,1.275,4.508,2.956,6.188c1.681,1.679,3.82,2.7,6.187,2.954L11.353,23.119z"/>
		<path fill="#000100" d="M5.48,11.432L4.74,11.316c0.255-1.688,1.014-3.203,2.194-4.383c1.18-1.18,2.695-1.938,4.382-2.194
			l0.113,0.741C9.9,5.712,8.529,6.398,7.463,7.463C6.398,8.53,5.712,9.901,5.48,11.432z"/>
		<path fill="#000100" d="M19.52,11.432c-0.232-1.53-0.918-2.901-1.982-3.968c-1.064-1.065-2.438-1.751-3.969-1.983l0.113-0.741
			c1.688,0.256,3.207,1.015,4.387,2.194c1.178,1.181,1.938,2.696,2.191,4.384L19.52,11.432z"/>
		<path fill="#000100" d="M11.318,20.259c-1.688-0.256-3.205-1.014-4.383-2.19c-1.182-1.182-1.94-2.699-2.194-4.389l0.741-0.111
			c0.23,1.529,0.916,2.902,1.983,3.971c1.065,1.062,2.437,1.748,3.967,1.98L11.318,20.259z"/>
		<path fill="#000100" d="M13.682,20.262l-0.113-0.742c1.533-0.231,2.904-0.918,3.969-1.98c1.066-1.066,1.752-2.439,1.984-3.971
			l0.74,0.111c-0.256,1.691-1.016,3.209-2.193,4.389C16.889,19.246,15.371,20.005,13.682,20.262z"/>
		<path fill="#FFFFFF" d="M11.374,5.11"/>
		<path fill="#FFFFFF" d="M13.623,5.11"/>
		<path fill="#FFFFFF" d="M13.623,2.066"/>
	</g>
	<circle fill="#000100" cx="10.379" cy="13.624" r="1.126"/>
	<path fill="#000100" d="M15.879,13.624c0,0.625-0.502,1.129-1.127,1.129c-0.619,0-1.127-0.504-1.127-1.129
		c0-0.621,0.508-1.124,1.127-1.124C15.377,12.5,15.879,13.003,15.879,13.624z"/>
	<path fill="#000100" d="M13.762,10.833c0,0.625-0.504,1.129-1.128,1.129c-0.618,0-1.128-0.504-1.128-1.129
		c0-0.621,0.51-1.123,1.128-1.123C13.258,9.71,13.762,10.212,13.762,10.833z"/>
</g>
</svg>
