<?xml version="1.0" encoding="utf-8"?>
<!-- Generator: Adobe Illustrator 16.0.0, SVG Export Plug-In . SVG Version: 6.00 Build 0)  -->
<!DOCTYPE svg PUBLIC "-//W3C//DTD SVG 1.1//EN" "http://www.w3.org/Graphics/SVG/1.1/DTD/svg11.dtd">
<svg version="1.1" id="Calque_1" xmlns="http://www.w3.org/2000/svg" xmlns:xlink="http://www.w3.org/1999/xlink" x="0px" y="0px"
	 width="25px" height="25px" viewBox="0 0 25 25" enable-background="new 0 0 25 25" xml:space="preserve">
<g>
	<path fill="#000100" d="M14.148,12.281l4.783-6.121h-3.3l-2.204,2.814c-0.316,0.397-0.63,0.794-0.941,1.191L9.364,6.16H6.066
		l4.75,6.137L5.778,18.84h3.271l3.438-4.445l3.467,4.445h3.275L14.148,12.281z"/>
	<path fill="#000100" d="M20.924,13.248c0,0.824-0.664,1.488-1.484,1.488c-0.819,0-1.483-0.664-1.483-1.488
		c0-0.818,0.664-1.482,1.483-1.482C20.26,11.766,20.924,12.43,20.924,13.248z"/>
	<path fill="#000100" d="M7.047,13.248c0,0.824-0.662,1.488-1.484,1.488c-0.818,0-1.487-0.664-1.487-1.488
		c0-0.818,0.669-1.482,1.487-1.482C6.386,11.766,7.047,12.43,7.047,13.248z"/>
</g>
</svg>
