<?xml version="1.0" encoding="utf-8"?>
<!-- Generator: Adobe Illustrator 16.0.0, SVG Export Plug-In . SVG Version: 6.00 Build 0)  -->
<!DOCTYPE svg PUBLIC "-//W3C//DTD SVG 1.1//EN" "http://www.w3.org/Graphics/SVG/1.1/DTD/svg11.dtd">
<svg version="1.1" id="Calque_1" xmlns="http://www.w3.org/2000/svg" xmlns:xlink="http://www.w3.org/1999/xlink" x="0px" y="0px"
	 width="32px" height="32px" viewBox="0 0 32 32" enable-background="new 0 0 32 32" xml:space="preserve">
<g>
	<g>
		<g>
			<path fill="#1D1D1B" stroke="#000100" stroke-width="0.25" stroke-miterlimit="10" d="M9.78,20.082
				c0.438-0.729,1.048-1.368,1.82-1.849c0.697-0.434,1.453-0.693,2.217-0.792"/>
			<path fill="#1D1D1B" stroke="#000100" stroke-width="0.5" stroke-miterlimit="10" d="M11.213,20.775
				c0.306-0.47,0.718-0.884,1.225-1.198c0.454-0.282,0.943-0.463,1.439-0.545"/>
			<path fill="#1D1D1B" stroke="#000100" stroke-width="0.25" stroke-miterlimit="10" d="M15.298,24.17
				c-0.684,0.424-1.582,0.217-2.008-0.469c-0.427-0.682-0.217-1.579,0.468-2.005c0.681-0.428,1.581-0.216,2.008,0.466
				C16.19,22.846,15.98,23.742,15.298,24.17z"/>
		</g>
		<g>
			<polyline fill="#1D1D1B" stroke="#1D1D1B" stroke-width="0.25" stroke-miterlimit="10" points="14.741,15.108 14.566,21.479 
				13.205,22.328 7.311,19.629 			"/>
		</g>
	</g>
	<g>
		<g>
			<g>
				<polyline fill="none" stroke="#1D1D1B" stroke-width="0.75" stroke-miterlimit="10" points="26.49,13.529 26.49,13.029 
					25.99,13.029 				"/>
				
					<line fill="none" stroke="#1D1D1B" stroke-width="0.75" stroke-miterlimit="10" stroke-dasharray="0.9514,0.9514" x1="25.039" y1="13.029" x2="6.486" y2="13.029"/>
				<polyline fill="none" stroke="#1D1D1B" stroke-width="0.75" stroke-miterlimit="10" points="6.011,13.029 5.511,13.029 
					5.511,13.529 				"/>
				
					<line fill="none" stroke="#1D1D1B" stroke-width="0.75" stroke-miterlimit="10" stroke-dasharray="1.0646,1.0646" x1="5.511" y1="14.594" x2="5.511" y2="26.837"/>
				<polyline fill="none" stroke="#1D1D1B" stroke-width="0.75" stroke-miterlimit="10" points="5.511,27.369 5.511,27.869 
					6.011,27.869 				"/>
				
					<line fill="none" stroke="#1D1D1B" stroke-width="0.75" stroke-miterlimit="10" stroke-dasharray="0.9514,0.9514" x1="6.962" y1="27.869" x2="25.515" y2="27.869"/>
				<polyline fill="none" stroke="#1D1D1B" stroke-width="0.75" stroke-miterlimit="10" points="25.99,27.869 26.49,27.869 
					26.49,27.369 				"/>
				
					<line fill="none" stroke="#1D1D1B" stroke-width="0.75" stroke-miterlimit="10" stroke-dasharray="1.0646,1.0646" x1="26.49" y1="26.305" x2="26.49" y2="14.062"/>
			</g>
		</g>
		<g>
			<g>
				<polyline fill="none" stroke="#1D1D1B" stroke-width="0.75" stroke-miterlimit="10" points="30.774,4.577 31,4.131 30.5,4.131 
									"/>
				
					<line fill="none" stroke="#1D1D1B" stroke-width="0.75" stroke-miterlimit="10" stroke-dasharray="1,1" x1="29.5" y1="4.131" x2="2" y2="4.131"/>
				<polyline fill="none" stroke="#1D1D1B" stroke-width="0.75" stroke-miterlimit="10" points="1.5,4.131 1,4.131 1.226,4.577 				
					"/>
				
					<line fill="none" stroke="#1D1D1B" stroke-width="0.75" stroke-miterlimit="10" stroke-dasharray="0.9974,0.9974" x1="1.677" y1="5.466" x2="5.059" y2="12.139"/>
				<polyline fill="none" stroke="#1D1D1B" stroke-width="0.75" stroke-miterlimit="10" points="5.285,12.583 5.511,13.029 
					6.011,13.029 				"/>
				
					<line fill="none" stroke="#1D1D1B" stroke-width="0.75" stroke-miterlimit="10" stroke-dasharray="0.9514,0.9514" x1="6.962" y1="13.029" x2="25.515" y2="13.029"/>
				<polyline fill="none" stroke="#1D1D1B" stroke-width="0.75" stroke-miterlimit="10" points="25.99,13.029 26.49,13.029 
					26.716,12.583 				"/>
				
					<line fill="none" stroke="#1D1D1B" stroke-width="0.75" stroke-miterlimit="10" stroke-dasharray="0.9973,0.9973" x1="27.167" y1="11.694" x2="30.549" y2="5.021"/>
			</g>
		</g>
	</g>
	<g>
		<g>
			<path fill="none" stroke="#000100" stroke-width="0.25" stroke-miterlimit="10" d="M10.057,8.583
				c0.094-0.462,0.384-0.919,0.886-1.333c0.453-0.374,1.032-0.676,1.686-0.898"/>
			<path fill="none" stroke="#000100" stroke-width="0.5" stroke-miterlimit="10" d="M11.648,8.602
				c0.082-0.304,0.284-0.603,0.614-0.874c0.295-0.244,0.665-0.444,1.082-0.599"/>
			<path fill="none" stroke="#000100" stroke-width="0.25" stroke-miterlimit="10" d="M16.775,9.358
				c-0.445,0.367-1.349,0.469-2.02,0.226c-0.673-0.243-0.856-0.737-0.411-1.104c0.441-0.367,1.348-0.467,2.02-0.225
				C17.035,8.498,17.219,8.991,16.775,9.358z"/>
		</g>
		<line fill="none" stroke="#1D1D1B" stroke-width="0.25" stroke-miterlimit="10" x1="14.106" y1="8.92" x2="7.622" y2="8.92"/>
		<line fill="none" stroke="#1D1D1B" stroke-width="0.25" stroke-miterlimit="10" x1="12.497" y1="4.982" x2="14.99" y2="8.188"/>
	</g>
</g>
</svg>
