<?xml version="1.0" encoding="utf-8"?>
<!-- Generator: Adobe Illustrator 16.0.0, SVG Export Plug-In . SVG Version: 6.00 Build 0)  -->
<!DOCTYPE svg PUBLIC "-//W3C//DTD SVG 1.1//EN" "http://www.w3.org/Graphics/SVG/1.1/DTD/svg11.dtd">
<svg version="1.1" id="Calque_1" xmlns="http://www.w3.org/2000/svg" xmlns:xlink="http://www.w3.org/1999/xlink" x="0px" y="0px"
	 width="32px" height="32px" viewBox="0 0 32 32" enable-background="new 0 0 32 32" xml:space="preserve">
<g>
	<g>
		<polyline fill="none" stroke="#1D1E1C" stroke-miterlimit="10" points="19.172,25.399 19.172,28.546 2.168,28.546 2.168,18.022 
			5.766,18.022 		"/>
		<g>
			<polygon fill="none" points="19.672,20.97 26.812,20.97 26.812,11.446 10.809,11.446 10.809,17.478 19.672,17.478 			"/>
			<rect x="10.809" y="18.478" fill="none" width="7.863" height="2.492"/>
			<polygon fill="#1D1E1C" points="27.812,10.446 9.809,10.446 9.809,17.478 10.809,17.478 10.809,11.446 26.812,11.446 
				26.812,20.97 19.672,20.97 19.672,21.97 27.812,21.97 			"/>
			<polygon fill="#1D1E1C" points="10.809,20.97 10.809,18.478 9.809,18.478 9.809,21.97 18.672,21.97 18.672,20.97 			"/>
			<polyline fill="#FFFFFF" points="9.809,18.478 10.809,18.478 10.809,17.478 9.809,17.478 			"/>
			<rect x="18.672" y="20.97" fill="#FFFFFF" width="1" height="1"/>
		</g>
		<g>
			<path fill="#1D1E1C" d="M5.738,13.985v11.523h18.004V13.985H5.738z M19.672,25.399h-1v-6.922H5.766v-1h13.906V25.399z"/>
		</g>
	</g>
	<g>
		<rect x="29.984" y="3.454" fill="#1D1D1B" width="0.75" height="0.5"/>
		<path fill="#1D1D1B" d="M30.734,20.524h-0.75v-1.037h0.75V20.524z M30.734,18.452h-0.75v-1.035h0.75V18.452z M30.734,16.382h-0.75
			v-1.037h0.75V16.382z M30.734,14.31h-0.75v-1.035h0.75V14.31z M30.734,12.239h-0.75v-1.037h0.75V12.239z M30.734,10.167h-0.75
			V9.132h0.75V10.167z M30.734,8.097h-0.75V7.06h0.75V8.097z M30.734,6.024h-0.75V4.989h0.75V6.024z"/>
		<polygon fill="#1D1D1B" points="30.734,22.435 29.859,22.435 29.859,21.685 29.984,21.685 29.984,21.56 30.734,21.56 		"/>
		<path fill="#1D1D1B" d="M28.824,22.435h-1.037v-0.75h1.037V22.435z M26.752,22.435h-1.035v-0.75h1.035V22.435z M24.682,22.435
			h-1.037v-0.75h1.037V22.435z M22.609,22.435h-1.035v-0.75h1.035V22.435z M18.467,22.435h-1.035v-0.75h1.035V22.435z
			 M16.396,22.435h-1.037v-0.75h1.037V22.435z M14.324,22.435h-1.035v-0.75h1.035V22.435z"/>
		<polygon fill="#1D1D1B" points="12.252,22.435 11.377,22.435 11.377,21.56 12.127,21.56 12.127,21.685 12.252,21.685 		"/>
		<path fill="#1D1D1B" d="M12.127,20.524h-0.75v-1.037h0.75V20.524z M12.127,16.382h-0.75v-1.037h0.75V16.382z M12.127,14.31h-0.75
			v-1.035h0.75V14.31z M12.127,12.239h-0.75v-1.037h0.75V12.239z M12.127,10.167h-0.75V9.132h0.75V10.167z M12.127,8.097h-0.75V7.06
			h0.75V8.097z M12.127,6.024h-0.75V4.989h0.75V6.024z"/>
		<rect x="11.377" y="3.454" fill="#1D1D1B" width="0.75" height="0.5"/>
	</g>
	<g>
		<g>
			
				<line fill="none" stroke="#1D1D1B" stroke-width="0.75" stroke-miterlimit="10" x1="11.752" y1="22.06" x2="11.327" y2="22.322"/>
			
				<line fill="none" stroke="#1D1D1B" stroke-width="0.75" stroke-miterlimit="10" stroke-dasharray="1.03,1.03" x1="10.451" y1="22.864" x2="2.129" y2="28.012"/>
			<line fill="none" stroke="#1D1D1B" stroke-width="0.75" stroke-miterlimit="10" x1="1.691" y1="28.283" x2="1.266" y2="28.546"/>
		</g>
	</g>
	<g>
		<g>
			
				<line fill="none" stroke="#1D1D1B" stroke-width="0.75" stroke-miterlimit="10" x1="30.432" y1="22.253" x2="30.134" y2="22.654"/>
			
				<line fill="none" stroke="#1D1D1B" stroke-width="0.75" stroke-miterlimit="10" stroke-dasharray="0.9763,0.9763" x1="29.553" y1="23.438" x2="26.354" y2="27.752"/>
			
				<line fill="none" stroke="#1D1D1B" stroke-width="0.75" stroke-miterlimit="10" x1="26.063" y1="28.145" x2="25.766" y2="28.546"/>
		</g>
	</g>
</g>
</svg>
