<?xml version="1.0" encoding="utf-8"?>
<!-- Generator: Adobe Illustrator 16.0.0, SVG Export Plug-In . SVG Version: 6.00 Build 0)  -->
<!DOCTYPE svg PUBLIC "-//W3C//DTD SVG 1.1//EN" "http://www.w3.org/Graphics/SVG/1.1/DTD/svg11.dtd">
<svg version="1.1" id="Calque_1" xmlns="http://www.w3.org/2000/svg" xmlns:xlink="http://www.w3.org/1999/xlink" x="0px" y="0px"
	 width="25px" height="25px" viewBox="0 0 25 25" enable-background="new 0 0 25 25" xml:space="preserve">
<g>
	<g>
		<path fill="#000100" d="M11.338,18.506c-1.202-0.23-2.296-0.812-3.164-1.678c-0.868-0.868-1.45-1.963-1.682-3.168l0.368-0.071
			c0.218,1.132,0.765,2.159,1.579,2.974c0.814,0.812,1.842,1.357,2.971,1.576L11.338,18.506z"/>
		<path fill="#000100" d="M11.35,20.883c-1.875-0.257-3.555-1.078-4.854-2.378c-1.3-1.3-2.124-2.978-2.379-4.854L4.488,13.6
			c0.244,1.795,1.029,3.398,2.271,4.641c1.242,1.24,2.847,2.025,4.642,2.271L11.35,20.883z"/>
		<path fill="#000100" d="M13.648,20.883L13.6,20.512c1.795-0.244,3.398-1.029,4.639-2.271c1.242-1.239,2.027-2.845,2.273-4.642
			l0.371,0.051c-0.257,1.879-1.078,3.558-2.379,4.854C17.206,19.807,15.527,20.627,13.648,20.883z"/>
		<path fill="#000100" d="M13.659,18.506l-0.07-0.367c1.129-0.216,2.156-0.761,2.972-1.576c0.817-0.815,1.363-1.844,1.578-2.973
			l0.367,0.07c-0.229,1.203-0.811,2.299-1.681,3.168C15.957,17.695,14.861,18.275,13.659,18.506z"/>
		<path fill="#000100" d="M4.488,11.4L4.116,11.35c0.257-1.875,1.079-3.553,2.378-4.854c1.298-1.299,2.977-2.121,4.854-2.379
			L11.4,4.49C9.604,4.735,8,5.52,6.759,6.761C5.519,8.004,4.733,9.607,4.488,11.4z"/>
		<path fill="#000100" d="M6.86,11.41l-0.368-0.07c0.232-1.205,0.813-2.299,1.682-3.165c0.869-0.87,1.963-1.45,3.165-1.681
			l0.07,0.368c-1.127,0.216-2.154,0.762-2.97,1.577C7.624,9.254,7.079,10.28,6.86,11.41z"/>
		<path fill="#000100" d="M20.514,11.4c-0.246-1.792-1.031-3.396-2.273-4.639C17,5.519,15.395,4.734,13.6,4.49l0.051-0.373
			c1.877,0.256,3.556,1.078,4.854,2.379c1.3,1.301,2.123,2.98,2.379,4.854L20.514,11.4z"/>
		<path fill="#000100" d="M17.954,11.445c-0.211-1.092-0.738-2.086-1.524-2.874c-0.787-0.788-1.781-1.316-2.875-1.527l0.141-0.736
			c1.242,0.239,2.371,0.84,3.264,1.733c0.895,0.894,1.493,2.021,1.732,3.263L17.954,11.445z"/>
		<path fill="#000100" d="M13.693,18.691l-0.141-0.737c1.092-0.208,2.086-0.735,2.875-1.524s1.318-1.783,1.525-2.875l0.736,0.141
			c-0.236,1.24-0.836,2.369-1.732,3.267C16.062,17.855,14.936,18.453,13.693,18.691z"/>
		<path fill="#000100" d="M7.045,11.445l-0.737-0.143c0.239-1.241,0.839-2.368,1.733-3.262c0.896-0.896,2.024-1.495,3.262-1.731
			l0.141,0.736c-1.09,0.209-2.083,0.736-2.873,1.525C7.784,9.359,7.256,10.354,7.045,11.445z"/>
		<path fill="#000100" d="M11.303,18.691c-1.239-0.24-2.367-0.838-3.262-1.73c-0.894-0.895-1.494-2.023-1.733-3.266l0.737-0.143
			c0.211,1.094,0.739,2.09,1.527,2.877c0.788,0.786,1.782,1.313,2.874,1.523L11.303,18.691z"/>
	</g>
	<path fill="#000100" d="M12.498,14.875c-0.635,0-1.23-0.248-1.678-0.695c-0.448-0.447-0.696-1.043-0.696-1.678
		s0.247-1.232,0.696-1.68c0.447-0.449,1.043-0.695,1.677-0.695c0.635,0,1.231,0.246,1.683,0.695c0.924,0.926,0.924,2.432,0,3.357
		C13.729,14.627,13.132,14.875,12.498,14.875z M12.497,10.502c-0.534,0-1.035,0.207-1.41,0.585c-0.379,0.378-0.587,0.88-0.587,1.415
		c0,0.534,0.209,1.035,0.587,1.412c0.376,0.378,0.877,0.586,1.412,0.586c0.534,0,1.037-0.209,1.415-0.586
		c0.777-0.779,0.777-2.048,0-2.827C13.535,10.709,13.032,10.502,12.497,10.502z"/>
</g>
</svg>
