<?xml version="1.0" encoding="utf-8"?>
<!-- Generator: Adobe Illustrator 16.0.0, SVG Export Plug-In . SVG Version: 6.00 Build 0)  -->
<!DOCTYPE svg PUBLIC "-//W3C//DTD SVG 1.1//EN" "http://www.w3.org/Graphics/SVG/1.1/DTD/svg11.dtd">
<svg version="1.1" id="Calque_1" xmlns="http://www.w3.org/2000/svg" xmlns:xlink="http://www.w3.org/1999/xlink" x="0px" y="0px"
	 width="32px" height="32px" viewBox="0 0 32 32" enable-background="new 0 0 32 32" xml:space="preserve">
<g>
	<g>
		<g>
			<line fill="none" stroke="#1D1D1B" stroke-width="0.75" stroke-miterlimit="10" x1="30.511" y1="3.454" x2="30.511" y2="3.954"/>
			
				<line fill="none" stroke="#1D1D1B" stroke-width="0.75" stroke-miterlimit="10" stroke-dasharray="1.0357,1.0357" x1="30.511" y1="4.99" x2="30.511" y2="21.043"/>
			<polyline fill="none" stroke="#1D1D1B" stroke-width="0.75" stroke-miterlimit="10" points="30.511,21.561 30.511,22.061 
				30.011,22.061 			"/>
			
				<line fill="none" stroke="#1D1D1B" stroke-width="0.75" stroke-miterlimit="10" stroke-dasharray="1.0356,1.0356" x1="28.976" y1="22.061" x2="12.923" y2="22.061"/>
			<polyline fill="none" stroke="#1D1D1B" stroke-width="0.75" stroke-miterlimit="10" points="12.405,22.061 11.905,22.061 
				11.905,21.561 			"/>
			
				<line fill="none" stroke="#1D1D1B" stroke-width="0.75" stroke-miterlimit="10" stroke-dasharray="1.0357,1.0357" x1="11.905" y1="20.524" x2="11.905" y2="4.472"/>
			<line fill="none" stroke="#1D1D1B" stroke-width="0.75" stroke-miterlimit="10" x1="11.905" y1="3.954" x2="11.905" y2="3.454"/>
		</g>
	</g>
	<g>
		<g>
			
				<line fill="none" stroke="#1D1D1B" stroke-width="0.75" stroke-miterlimit="10" x1="11.905" y1="22.061" x2="11.48" y2="22.323"/>
			
				<line fill="none" stroke="#1D1D1B" stroke-width="0.75" stroke-miterlimit="10" stroke-dasharray="1.0301,1.0301" x1="10.604" y1="22.865" x2="2.28" y2="28.012"/>
			<line fill="none" stroke="#1D1D1B" stroke-width="0.75" stroke-miterlimit="10" x1="1.842" y1="28.283" x2="1.417" y2="28.546"/>
		</g>
	</g>
	<g>
		<g>
			
				<line fill="none" stroke="#1D1D1B" stroke-width="0.75" stroke-miterlimit="10" x1="30.583" y1="22.253" x2="30.285" y2="22.654"/>
			
				<line fill="none" stroke="#1D1D1B" stroke-width="0.75" stroke-miterlimit="10" stroke-dasharray="0.9763,0.9763" x1="29.704" y1="23.438" x2="26.506" y2="27.752"/>
			
				<line fill="none" stroke="#1D1D1B" stroke-width="0.75" stroke-miterlimit="10" x1="26.215" y1="28.145" x2="25.917" y2="28.546"/>
		</g>
	</g>
	<ellipse fill="#000100" cx="19.191" cy="26.599" rx="1.442" ry="0.602"/>
	<g>
		<g>
			<path fill="none" stroke="#000100" stroke-width="0.25" stroke-miterlimit="10" d="M18.44,13.812
				c-0.748-0.145-1.465-0.506-2.045-1.085c-0.58-0.581-0.941-1.298-1.086-2.047"/>
			<path fill="none" stroke="#000100" stroke-width="0.25" stroke-miterlimit="10" d="M13.726,10.68
				c0.158,1.157,0.66,2.276,1.551,3.165c0.889,0.889,2.008,1.392,3.164,1.55"/>
			<path fill="none" stroke="#000100" stroke-width="0.25" stroke-miterlimit="10" d="M19.94,15.395
				c1.158-0.157,2.275-0.659,3.166-1.549c0.889-0.89,1.393-2.009,1.549-3.166"/>
			<path fill="none" stroke="#000100" stroke-width="0.25" stroke-miterlimit="10" d="M23.073,10.68
				c-0.145,0.75-0.506,1.466-1.086,2.047c-0.58,0.58-1.297,0.941-2.047,1.085"/>
			<path fill="none" stroke="#000100" stroke-width="0.25" stroke-miterlimit="10" d="M18.44,4.466
				c-1.156,0.158-2.275,0.66-3.164,1.55s-1.393,2.008-1.551,3.164"/>
			<path fill="none" stroke="#000100" stroke-width="0.25" stroke-miterlimit="10" d="M15.31,9.18
				c0.145-0.749,0.506-1.465,1.086-2.045s1.297-0.942,2.045-1.086"/>
			<path fill="none" stroke="#000100" stroke-width="0.25" stroke-miterlimit="10" d="M24.655,9.18
				c-0.158-1.156-0.66-2.274-1.549-3.164c-0.891-0.89-2.008-1.393-3.166-1.55"/>
			<path fill="none" stroke="#000100" stroke-width="0.5" stroke-miterlimit="10" d="M19.94,6.048
				c0.75,0.145,1.465,0.506,2.047,1.087c0.58,0.58,0.941,1.296,1.086,2.045"/>
			<path fill="none" stroke="#000100" stroke-width="0.5" stroke-miterlimit="10" d="M19.94,13.812
				c0.75-0.144,1.467-0.505,2.047-1.085c0.58-0.581,0.941-1.297,1.086-2.047"/>
			<path fill="none" stroke="#000100" stroke-width="0.5" stroke-miterlimit="10" d="M18.44,6.049
				c-0.748,0.144-1.465,0.506-2.045,1.086S15.454,8.431,15.31,9.18"/>
			<path fill="none" stroke="#000100" stroke-width="0.5" stroke-miterlimit="10" d="M15.31,10.68
				c0.145,0.749,0.506,1.466,1.086,2.047c0.58,0.579,1.297,0.94,2.045,1.085"/>
		</g>
		<circle fill="none" stroke="#000100" stroke-width="0.25" stroke-miterlimit="10" cx="19.191" cy="9.93" r="1.457"/>
	</g>
</g>
</svg>
