<?xml version="1.0" encoding="utf-8"?>
<!-- Generator: Adobe Illustrator 16.0.0, SVG Export Plug-In . SVG Version: 6.00 Build 0)  -->
<!DOCTYPE svg PUBLIC "-//W3C//DTD SVG 1.1//EN" "http://www.w3.org/Graphics/SVG/1.1/DTD/svg11.dtd">
<svg version="1.1" id="Calque_1" xmlns="http://www.w3.org/2000/svg" xmlns:xlink="http://www.w3.org/1999/xlink" x="0px" y="0px"
	 width="32px" height="32px" viewBox="0 0 32 32" enable-background="new 0 0 32 32" xml:space="preserve">
<g>
	<path fill="none" stroke="#1D1D1B" stroke-miterlimit="10" d="M25.812,28.035"/>
	<g>
		<g>
			<g>
				<polyline fill="none" stroke="#1D1D1B" stroke-width="0.75" stroke-miterlimit="10" points="26.49,13.363 26.49,12.863 
					25.99,12.863 				"/>
				
					<line fill="none" stroke="#1D1D1B" stroke-width="0.75" stroke-miterlimit="10" stroke-dasharray="0.9514,0.9514" x1="25.039" y1="12.863" x2="6.487" y2="12.863"/>
				<polyline fill="none" stroke="#1D1D1B" stroke-width="0.75" stroke-miterlimit="10" points="6.012,12.863 5.512,12.863 
					5.512,13.363 				"/>
				
					<line fill="none" stroke="#1D1D1B" stroke-width="0.75" stroke-miterlimit="10" stroke-dasharray="1.0646,1.0646" x1="5.512" y1="14.428" x2="5.512" y2="26.671"/>
				<polyline fill="none" stroke="#1D1D1B" stroke-width="0.75" stroke-miterlimit="10" points="5.512,27.203 5.512,27.703 
					6.012,27.703 				"/>
				
					<line fill="none" stroke="#1D1D1B" stroke-width="0.75" stroke-miterlimit="10" stroke-dasharray="0.9514,0.9514" x1="6.963" y1="27.703" x2="25.515" y2="27.703"/>
				<polyline fill="none" stroke="#1D1D1B" stroke-width="0.75" stroke-miterlimit="10" points="25.99,27.703 26.49,27.703 
					26.49,27.203 				"/>
				
					<line fill="none" stroke="#1D1D1B" stroke-width="0.75" stroke-miterlimit="10" stroke-dasharray="1.0646,1.0646" x1="26.49" y1="26.139" x2="26.49" y2="13.896"/>
			</g>
		</g>
		<g>
			<g>
				<polyline fill="none" stroke="#1D1D1B" stroke-width="0.75" stroke-miterlimit="10" points="30.774,4.411 31,3.965 30.5,3.965 
									"/>
				
					<line fill="none" stroke="#1D1D1B" stroke-width="0.75" stroke-miterlimit="10" stroke-dasharray="1,1" x1="29.5" y1="3.965" x2="2" y2="3.965"/>
				<polyline fill="none" stroke="#1D1D1B" stroke-width="0.75" stroke-miterlimit="10" points="1.5,3.965 1,3.965 1.226,4.411 				
					"/>
				
					<line fill="none" stroke="#1D1D1B" stroke-width="0.75" stroke-miterlimit="10" stroke-dasharray="0.9974,0.9974" x1="1.677" y1="5.3" x2="5.06" y2="11.973"/>
				<polyline fill="none" stroke="#1D1D1B" stroke-width="0.75" stroke-miterlimit="10" points="5.286,12.417 5.512,12.863 
					6.012,12.863 				"/>
				
					<line fill="none" stroke="#1D1D1B" stroke-width="0.75" stroke-miterlimit="10" stroke-dasharray="0.9514,0.9514" x1="6.963" y1="12.863" x2="25.515" y2="12.863"/>
				<polyline fill="none" stroke="#1D1D1B" stroke-width="0.75" stroke-miterlimit="10" points="25.99,12.863 26.49,12.863 
					26.716,12.417 				"/>
				
					<line fill="none" stroke="#1D1D1B" stroke-width="0.75" stroke-miterlimit="10" stroke-dasharray="0.9973,0.9973" x1="27.167" y1="11.528" x2="30.549" y2="4.855"/>
			</g>
		</g>
	</g>
	<g>
		<path fill="none" stroke="#1D1D1B" stroke-width="0.5" stroke-miterlimit="10" d="M23.562,27.592c0-0.686,0.277-1.305,0.725-1.754
			"/>
		<path fill="none" stroke="#1D1D1B" stroke-width="0.5" stroke-miterlimit="10" d="M21.438,27.592c0-1.271,0.516-2.422,1.348-3.256
			"/>
		<path fill="none" stroke="#1D1D1B" stroke-width="0.5" stroke-miterlimit="10" d="M18.605,27.592c0-2.053,0.832-3.912,2.178-5.258
			"/>
		<path fill="none" stroke="#1D1D1B" stroke-width="0.5" stroke-miterlimit="10" d="M15.064,27.592c0-3.031,1.229-5.774,3.215-7.761
			"/>
		<path fill="none" stroke="#1D1D1B" stroke-width="0.5" stroke-miterlimit="10" d="M8.811,27.592c0-4.715,2.143-8.93,5.51-11.722"
			/>
		<path fill="none" stroke="#1D1D1B" stroke-width="0.5" stroke-miterlimit="10" d="M4.797,15.592
			c1.305-1.761,2.889-3.303,4.686-4.559"/>
	</g>
	<g>
		<path fill="none" stroke="#1D1D1B" stroke-width="0.5" stroke-miterlimit="10" d="M5.797,20.422
			c1.111,0.614,1.869,1.621,2.197,2.754"/>
		<path fill="none" stroke="#1D1D1B" stroke-width="0.5" stroke-miterlimit="10" d="M7.166,17.942
			c1.797,0.993,3.021,2.619,3.549,4.447"/>
		<path fill="none" stroke="#1D1D1B" stroke-width="0.5" stroke-miterlimit="10" d="M8.877,14.844
			c2.652,1.465,4.461,3.866,5.24,6.565"/>
		<path fill="none" stroke="#1D1D1B" stroke-width="0.5" stroke-miterlimit="10" d="M11.9,9.366
			c4.127,2.279,6.781,6.193,7.598,10.49"/>
		<path fill="none" stroke="#1D1D1B" stroke-width="0.5" stroke-miterlimit="10" d="M24.344,11.655
			c0.912,1.991,1.496,4.124,1.727,6.305"/>
		<path fill="none" stroke="#1D1D1B" stroke-width="0.5" stroke-miterlimit="10" d="M20.811,6.348
			c2.988,3.228,4.807,7.325,5.26,11.612"/>
	</g>
</g>
</svg>
